<svg width="296" height="271" viewBox="0 0 296 271" fill="none" xmlns="http://www.w3.org/2000/svg">
<g clip-path="url(#clip0_159_1497)">
<g clip-path="url(#clip1_159_1497)">
<g opacity="0.5">
<path d="M109.848 145.597C109.684 145.597 109.521 145.543 109.371 145.447C108.295 144.639 107.232 143.805 106.21 142.942C105.87 142.655 105.829 142.148 106.115 141.82C106.401 141.478 106.905 141.437 107.232 141.724C108.227 142.559 109.262 143.38 110.311 144.16C110.665 144.42 110.733 144.927 110.475 145.283C110.325 145.488 110.093 145.597 109.848 145.597Z" fill="#6692FF"/>
<path d="M265.494 294.11C265.126 294.11 264.799 293.863 264.718 293.494C264.622 293.07 264.881 292.632 265.317 292.536C267.81 291.961 270.412 291.29 273.028 290.538C273.45 290.414 273.886 290.661 274.009 291.085C274.131 291.509 273.886 291.947 273.464 292.071C270.821 292.823 268.192 293.508 265.671 294.082C265.603 294.096 265.549 294.11 265.494 294.11ZM200.852 286.979C200.715 286.979 200.566 286.938 200.443 286.856C198.113 285.419 195.893 283.831 193.836 282.134C193.495 281.86 193.454 281.354 193.727 281.012C193.999 280.67 194.503 280.629 194.844 280.902C196.833 282.558 198.999 284.105 201.274 285.501C201.642 285.734 201.764 286.226 201.533 286.596C201.383 286.842 201.11 286.979 200.852 286.979ZM186.82 274.716C186.588 274.716 186.356 274.62 186.207 274.415C184.531 272.321 183.005 270.035 181.684 267.626C181.466 267.243 181.615 266.75 181.997 266.545C182.378 266.326 182.869 266.477 183.073 266.86C184.354 269.187 185.825 271.39 187.446 273.429C187.719 273.772 187.664 274.278 187.324 274.552C187.174 274.661 186.997 274.716 186.82 274.716ZM176.806 239.569C176.766 239.569 176.738 239.569 176.697 239.555C176.262 239.501 175.962 239.09 176.016 238.652C176.384 235.901 177.038 233.218 177.937 230.686C178.087 230.276 178.537 230.057 178.959 230.207C179.368 230.358 179.586 230.81 179.436 231.234C178.577 233.67 177.951 236.23 177.597 238.871C177.542 239.282 177.202 239.569 176.806 239.569ZM183.7 222.351C183.536 222.351 183.373 222.297 183.237 222.201C182.882 221.941 182.801 221.434 183.073 221.092C184.626 218.971 186.384 216.973 188.454 214.974C188.768 214.673 189.272 214.687 189.571 215.002C189.871 215.317 189.858 215.823 189.544 216.124C187.542 218.054 185.839 219.997 184.34 222.037C184.177 222.228 183.945 222.351 183.7 222.351ZM197.269 209.568C197.023 209.568 196.778 209.445 196.615 209.226C196.356 208.87 196.451 208.364 196.805 208.117C198.686 206.776 200.756 205.38 203.495 203.628C203.862 203.396 204.353 203.505 204.598 203.875C204.83 204.244 204.721 204.737 204.353 204.983C201.628 206.735 199.585 208.104 197.732 209.431C197.596 209.527 197.432 209.568 197.269 209.568ZM212.935 199.331C212.677 199.331 212.418 199.208 212.268 198.975C212.023 198.605 212.132 198.113 212.5 197.866C215.074 196.183 217.159 194.732 219.052 193.322C219.407 193.062 219.897 193.131 220.169 193.487C220.428 193.842 220.36 194.335 220.006 194.609C218.085 196.046 215.987 197.51 213.385 199.208C213.235 199.29 213.085 199.331 212.935 199.331ZM227.594 187.766C227.39 187.766 227.199 187.697 227.036 187.533C226.722 187.232 226.709 186.725 227.022 186.411C227.771 185.644 228.48 184.85 229.147 184.057C230.183 182.838 231.136 181.566 231.981 180.293C232.226 179.923 232.717 179.827 233.084 180.074C233.452 180.32 233.548 180.813 233.302 181.182C232.43 182.51 231.436 183.824 230.36 185.097C229.665 185.904 228.929 186.725 228.153 187.519C228.017 187.683 227.812 187.766 227.594 187.766ZM237.035 171.821C236.967 171.821 236.913 171.807 236.844 171.793C236.422 171.684 236.163 171.26 236.259 170.835C236.504 169.85 236.681 168.851 236.79 167.879C236.872 167.113 236.926 166.319 236.926 165.539C236.926 164.731 236.885 163.924 236.79 163.13C236.735 162.692 237.049 162.295 237.485 162.24C237.921 162.185 238.316 162.5 238.37 162.938C238.466 163.8 238.52 164.663 238.52 165.525C238.52 166.36 238.479 167.208 238.384 168.043C238.261 169.084 238.07 170.151 237.825 171.205C237.716 171.574 237.389 171.821 237.035 171.821ZM159.777 160.817C158.102 160.817 156.399 160.776 154.723 160.694C154.287 160.666 153.947 160.297 153.974 159.859C154.001 159.421 154.369 159.079 154.805 159.106C156.453 159.188 158.115 159.229 159.777 159.229C159.777 159.229 159.777 159.229 159.791 159.229C160.772 159.229 161.766 159.216 162.761 159.188C163.197 159.174 163.565 159.517 163.578 159.968C163.592 160.406 163.251 160.776 162.802 160.789C161.807 160.803 160.785 160.817 159.777 160.817C159.791 160.817 159.791 160.817 159.777 160.817ZM173.414 159.872C173.019 159.872 172.679 159.585 172.624 159.188C172.57 158.75 172.869 158.353 173.305 158.285C175.935 157.915 178.564 157.436 181.111 156.848C181.534 156.752 181.97 157.026 182.065 157.45C182.16 157.874 181.888 158.312 181.466 158.408C178.864 158.997 176.193 159.489 173.523 159.872C173.482 159.872 173.455 159.872 173.414 159.872ZM144.165 159.558C144.124 159.558 144.083 159.558 144.042 159.544C141.372 159.106 138.716 158.545 136.141 157.888C135.719 157.778 135.46 157.34 135.569 156.916C135.678 156.492 136.114 156.232 136.536 156.341C139.07 156.985 141.672 157.532 144.301 157.97C144.737 158.038 145.023 158.449 144.955 158.887C144.887 159.284 144.546 159.558 144.165 159.558ZM191.533 155.438C191.206 155.438 190.907 155.233 190.784 154.904C190.634 154.494 190.852 154.028 191.261 153.878C191.411 153.823 191.574 153.768 191.724 153.714C193.822 152.947 195.934 152.071 197.977 151.223L198.672 150.935C199.081 150.771 199.544 150.963 199.707 151.373C199.871 151.784 199.68 152.249 199.271 152.413L198.577 152.701C196.519 153.549 194.394 154.425 192.269 155.205C192.105 155.26 191.956 155.315 191.792 155.383C191.724 155.424 191.629 155.438 191.533 155.438ZM126.169 154.617C126.073 154.617 125.978 154.603 125.882 154.562C123.349 153.549 120.869 152.413 118.526 151.182C118.131 150.976 117.981 150.497 118.185 150.1C118.39 149.703 118.866 149.553 119.262 149.758C121.564 150.963 123.989 152.085 126.468 153.07C126.877 153.235 127.081 153.7 126.918 154.11C126.782 154.425 126.482 154.617 126.169 154.617ZM233.643 154.001C233.411 154.001 233.18 153.891 233.016 153.7C232.43 152.961 231.777 152.276 231.068 151.661C229.883 150.634 228.507 149.772 226.995 149.115C226.586 148.937 226.409 148.472 226.586 148.061C226.763 147.65 227.226 147.472 227.635 147.65C229.297 148.376 230.796 149.32 232.103 150.456C232.88 151.127 233.602 151.88 234.256 152.701C234.528 153.043 234.474 153.549 234.133 153.823C233.997 153.946 233.82 154.001 233.643 154.001ZM209.012 148.814C208.671 148.814 208.344 148.581 208.249 148.225C208.126 147.801 208.372 147.363 208.794 147.24C209.734 146.98 210.66 146.747 211.546 146.556C213.317 146.172 215.102 145.94 216.845 145.857C217.281 145.83 217.649 146.172 217.676 146.624C217.69 147.062 217.363 147.431 216.914 147.459C215.251 147.541 213.562 147.76 211.873 148.116C211.015 148.294 210.129 148.526 209.216 148.773C209.162 148.814 209.08 148.814 209.012 148.814Z" fill="#6692FF"/>
</g>
<g opacity="0.5">
<path d="M25.0977 97.4348C24.7026 97.4348 24.362 97.1337 24.3075 96.7367C24.0078 94.2732 23.5173 91.6727 22.8362 89.0039C22.7272 88.5796 22.986 88.1416 23.4084 88.0321C23.8307 87.9226 24.2666 88.1827 24.3756 88.6069C25.0704 91.3443 25.5745 94.0131 25.8878 96.5451C25.9423 96.9831 25.629 97.38 25.193 97.4348C25.1521 97.4348 25.1249 97.4348 25.0977 97.4348ZM20.2886 79.5054C19.9753 79.5054 19.6756 79.3138 19.553 78.999C18.5993 76.6039 17.5095 74.1677 16.3242 71.7725C16.1335 71.3756 16.2834 70.8966 16.6784 70.705C17.0735 70.5134 17.5503 70.6639 17.7411 71.0609C18.9535 73.497 20.057 75.9606 21.0243 78.3968C21.1878 78.8074 20.9834 79.2728 20.5883 79.437C20.493 79.4781 20.384 79.5054 20.2886 79.5054ZM-27.9788 73.6065C-28.4011 73.6065 -28.7417 73.2781 -28.769 72.8538C-28.7962 72.4158 -28.4556 72.0326 -28.0197 72.0052C-25.4449 71.8547 -22.9109 71.3483 -20.486 70.4723C-20.0773 70.3218 -19.6141 70.5408 -19.4779 70.9513C-19.328 71.3619 -19.546 71.8273 -19.9547 71.9642C-22.5295 72.8811 -25.2133 73.4286 -27.9379 73.5792C-27.9379 73.6065 -27.9652 73.6065 -27.9788 73.6065ZM-38.3461 71.9368C-38.4551 71.9368 -38.5505 71.9231 -38.6595 71.8683C-41.3433 70.7187 -43.5775 69.0763 -45.3077 66.9686C-45.5801 66.6264 -45.5393 66.12 -45.1987 65.8463C-44.8581 65.5725 -44.354 65.6136 -44.0816 65.9558C-42.5149 67.8582 -40.485 69.3637 -38.0464 70.4039C-37.6377 70.5818 -37.4606 71.0472 -37.6241 71.4441C-37.7331 71.7589 -38.0328 71.9368 -38.3461 71.9368ZM-11.1268 66.6675C-11.3584 66.6675 -11.5763 66.5717 -11.7398 66.3801C-12.0123 66.0379 -11.9714 65.5315 -11.6308 65.2578C-9.73718 63.6838 -7.92528 61.8909 -6.07251 59.7558C-5.78642 59.4273 -5.28236 59.3862 -4.95539 59.6737C-4.62844 59.9611 -4.58757 60.4675 -4.87365 60.796C-6.78092 62.9858 -8.66093 64.8472 -10.6227 66.4759C-10.7725 66.599 -10.9497 66.6675 -11.1268 66.6675ZM171.453 63.5196C171.439 63.5196 171.426 63.5196 171.426 63.5196C171.126 63.5059 170.813 63.4922 170.513 63.4648C168.156 63.3143 165.772 62.9584 163.429 62.411C163.007 62.3152 162.734 61.8772 162.829 61.4529C162.925 61.0286 163.361 60.7549 163.783 60.8507C166.045 61.3708 168.347 61.713 170.608 61.8635C170.894 61.8772 171.194 61.8909 171.494 61.9046C171.93 61.9183 172.27 62.3015 172.257 62.7394C172.23 63.1774 171.875 63.5196 171.453 63.5196ZM11.8285 62.9584C11.5697 62.9584 11.3109 62.8216 11.161 62.5889C9.73055 60.3169 8.21836 58.1271 6.6653 56.0878C6.40646 55.7319 6.46095 55.2392 6.81516 54.9655C7.16936 54.6918 7.6598 54.7602 7.93227 55.1161C9.49895 57.1964 11.0384 59.4136 12.4961 61.7266C12.7277 62.0962 12.6187 62.5889 12.2509 62.8216C12.1283 62.9174 11.9784 62.9584 11.8285 62.9584ZM181.984 62.671C181.616 62.671 181.275 62.411 181.207 62.0277C181.126 61.5898 181.398 61.1792 181.834 61.0834C184.286 60.5907 186.82 59.8927 189.368 58.9893C189.776 58.8388 190.24 59.0578 190.376 59.4821C190.526 59.8926 190.308 60.358 189.885 60.4949C187.27 61.4255 184.654 62.1509 182.134 62.6573C182.093 62.6573 182.038 62.671 181.984 62.671ZM153.634 58.9072C153.525 58.9072 153.402 58.8798 153.293 58.8251C150.977 57.7302 148.62 56.4163 146.263 54.9108C145.896 54.6781 145.787 54.1854 146.018 53.8158C146.25 53.4463 146.74 53.3368 147.108 53.5695C149.41 55.0339 151.713 56.3205 153.974 57.388C154.369 57.5796 154.546 58.045 154.356 58.4556C154.219 58.743 153.933 58.9072 153.634 58.9072ZM-48.1958 57.4428C-48.6318 57.4428 -48.986 57.1006 -48.986 56.6626C-48.986 56.5395 -48.986 56.43 -48.986 56.3068C-48.986 53.7337 -48.4547 51.0512 -47.4329 48.5602C-47.2694 48.1496 -46.8062 47.958 -46.3975 48.1222C-45.9888 48.2865 -45.7981 48.7518 -45.9616 49.1624C-46.9016 51.4618 -47.392 53.939 -47.392 56.3068C-47.392 56.4163 -47.392 56.5258 -47.392 56.6353C-47.3784 57.0732 -47.7326 57.4428 -48.1686 57.4428C-48.1958 57.4428 -48.1958 57.4428 -48.1958 57.4428ZM199.313 56.252C199.027 56.252 198.754 56.1015 198.604 55.8278C198.4 55.4308 198.55 54.9518 198.945 54.7465C201.152 53.5832 203.4 52.2966 205.784 50.8185C206.152 50.5858 206.642 50.709 206.874 51.0785C207.105 51.4481 206.983 51.9408 206.615 52.1735C204.19 53.679 201.915 54.9792 199.667 56.1562C199.558 56.2247 199.435 56.252 199.313 56.252ZM0.929882 52.6114C0.780025 52.6114 0.616547 52.5704 0.480312 52.4746C0.112484 52.2282 0.0307426 51.7218 0.275963 51.366C1.52931 49.532 2.76903 47.6432 3.96788 45.8092L4.67629 44.728C4.92151 44.3585 5.41195 44.2626 5.77978 44.4953C6.14761 44.7417 6.24297 45.2344 6.01138 45.6039L5.30297 46.6852C4.10411 48.5192 2.85077 50.4216 1.59742 52.2693C1.43394 52.4882 1.18872 52.6114 0.929882 52.6114ZM138.117 48.8066C137.94 48.8066 137.763 48.7518 137.613 48.6287C135.651 47.0273 133.676 45.3028 131.578 43.3593C131.251 43.0582 131.237 42.5518 131.537 42.237C131.836 41.9086 132.34 41.8949 132.654 42.196C134.725 44.1121 136.686 45.8092 138.621 47.3969C138.961 47.6706 139.016 48.177 138.73 48.5192C138.58 48.7108 138.348 48.8066 138.117 48.8066ZM0.31683 48.4097C0.11248 48.4097 -0.0782471 48.3412 -0.241726 48.1907C-2.18986 46.2883 -4.20611 44.6048 -6.23599 43.154C-6.59019 42.894 -6.68555 42.4013 -6.42671 42.0454C-6.16787 41.6896 -5.67743 41.5938 -5.32322 41.8538C-3.22523 43.3457 -1.14087 45.0838 0.861763 47.041C1.1751 47.3421 1.18872 47.8485 0.875389 48.1633C0.739155 48.3275 0.521179 48.4097 0.31683 48.4097ZM215.034 46.4114C214.789 46.4114 214.544 46.2883 214.38 46.0693C214.135 45.7134 214.217 45.207 214.571 44.9607C216.832 43.373 219.053 41.758 220.729 40.5262C221.083 40.2662 221.573 40.3483 221.832 40.7042C222.091 41.06 222.009 41.5527 221.655 41.8128C219.966 43.0446 217.745 44.6732 215.47 46.2746C215.347 46.3567 215.184 46.4114 215.034 46.4114ZM-40.376 41.2927C-40.6212 41.2927 -40.8528 41.1832 -41.0163 40.9779C-41.2752 40.622 -41.207 40.1293 -40.8665 39.8556C-38.7276 38.2269 -36.2754 36.9814 -33.5644 36.1465C-33.142 36.0234 -32.7061 36.256 -32.5699 36.6803C-32.4473 37.1046 -32.6788 37.5426 -33.1012 37.6794C-35.6215 38.4596 -37.9102 39.6229 -39.9128 41.1284C-40.0354 41.2379 -40.2125 41.2927 -40.376 41.2927ZM-15.1048 38.3501C-15.1865 38.3501 -15.2819 38.3364 -15.3772 38.309C-15.5543 38.2406 -15.7314 38.1858 -15.9085 38.1174C-18.17 37.351 -20.5268 36.8582 -22.9109 36.653C-23.3469 36.6119 -23.6738 36.2287 -23.633 35.7907C-23.5921 35.3527 -23.2106 35.0243 -22.7747 35.0653C-20.2544 35.2843 -17.7749 35.7907 -15.3909 36.6119C-15.2001 36.6803 -15.023 36.7351 -14.8323 36.8035C-14.4236 36.9541 -14.2056 37.4057 -14.3555 37.8163C-14.4781 38.1448 -14.7778 38.3501 -15.1048 38.3501ZM11.3381 37.2141C11.1746 37.2141 11.0111 37.1594 10.8749 37.0635C10.5207 36.8035 10.439 36.3108 10.6978 35.9549C12.319 33.724 13.9674 31.5753 15.575 29.6044C15.8474 29.2622 16.3515 29.2075 16.6921 29.4949C17.0326 29.7686 17.0871 30.275 16.801 30.6172C15.2071 32.5744 13.5859 34.6958 11.9784 36.8993C11.8285 37.0909 11.5833 37.2141 11.3381 37.2141ZM124.521 36.1602C124.316 36.1602 124.112 36.0781 123.948 35.9276C123.349 35.3117 122.736 34.6821 122.068 33.9978L121.755 33.6693C120.652 32.5333 119.521 31.3563 118.39 30.2066C118.077 29.8918 118.09 29.3854 118.404 29.0843C118.717 28.7695 119.221 28.7832 119.521 29.098C120.652 30.2614 121.796 31.4384 122.886 32.5744L123.199 32.9028C123.853 33.5872 124.466 34.2031 125.066 34.819C125.379 35.1338 125.365 35.6401 125.052 35.9412C124.929 36.0781 124.725 36.1602 124.521 36.1602ZM111.442 22.9664C111.252 22.9664 111.047 22.898 110.897 22.7475C108.827 20.7766 106.906 19.0384 105.026 17.4371C104.685 17.1497 104.644 16.6433 104.93 16.3148C105.216 15.9726 105.72 15.9316 106.047 16.219C107.941 17.8477 109.889 19.5996 111.974 21.5841C112.287 21.8852 112.301 22.3916 112.001 22.7064C111.865 22.8706 111.66 22.9664 111.442 22.9664ZM23.2449 22.9527C23.0405 22.9527 22.8362 22.8706 22.6863 22.7201C22.373 22.4053 22.373 21.8989 22.6727 21.5978C24.5936 19.6406 26.5553 17.7929 28.5307 16.1095C28.8577 15.8221 29.3617 15.8631 29.6478 16.1916C29.9339 16.5201 29.8931 17.0265 29.5661 17.3139C27.6316 18.97 25.6971 20.7903 23.8171 22.7064C23.6536 22.8706 23.4492 22.9527 23.2449 22.9527ZM37.5357 11.155C37.2769 11.155 37.0181 11.0181 36.8682 10.7854C36.6366 10.4159 36.7456 9.92319 37.1134 9.67683C39.3749 8.22606 41.7453 6.89847 44.1294 5.7488C44.5245 5.55719 45.0013 5.72143 45.1921 6.11834C45.3828 6.51525 45.2193 6.99428 44.8242 7.18589C42.4946 8.30818 40.1923 9.6084 37.9717 11.0181C37.8218 11.1139 37.672 11.155 37.5357 11.155ZM97.1378 11.155C96.9879 11.155 96.8244 11.1139 96.6882 11.0181C94.4267 9.48522 92.1653 8.13026 89.9447 6.99428C89.5496 6.78898 89.3997 6.30995 89.6041 5.91304C89.8084 5.51613 90.2852 5.36558 90.6803 5.57088C92.9554 6.74792 95.2714 8.13026 97.5873 9.69052C97.9552 9.93688 98.0505 10.4296 97.8053 10.7991C97.6418 11.0318 97.3966 11.155 97.1378 11.155ZM54.3469 3.50421C54.0063 3.50421 53.6794 3.27154 53.584 2.91569C53.4614 2.49141 53.7066 2.05344 54.1289 1.93027C56.7582 1.19119 59.4148 0.643733 62.0169 0.30157C62.4528 0.246824 62.8479 0.547927 62.9024 0.985896C62.9569 1.42386 62.6572 1.82077 62.2212 1.87552C59.6873 2.204 57.1125 2.73777 54.5649 3.44947C54.4968 3.49053 54.4287 3.50421 54.3469 3.50421ZM80.4901 3.17574C80.422 3.17574 80.3538 3.16205 80.2721 3.14836C78.8553 2.75146 77.4248 2.42298 75.9944 2.17662C74.8773 1.98501 73.7465 1.82077 72.6022 1.71128C72.1662 1.67022 71.8393 1.27331 71.8938 0.835344C71.9346 0.397376 72.3297 0.0688992 72.7656 0.123645C73.9373 0.233137 75.1225 0.397375 76.2805 0.602673C77.7518 0.862717 79.2367 1.20488 80.708 1.61548C81.1304 1.73865 81.3756 2.17662 81.2666 2.6009C81.1576 2.94307 80.8443 3.17574 80.4901 3.17574Z" fill="#6692FF"/>
</g>
<path d="M88.9633 52.9943L38.557 71.2658L33.639 86.3757C32.9715 88.1412 25.5876 114.05 27.6175 114.816L72.1113 104.524L95.9657 138.138C97.982 138.905 110.72 117.088 111.387 115.323L119.125 102.033L93.5135 54.7461C92.5326 53.2954 90.6526 52.57 88.9633 52.9943Z" fill="url(#paint0_linear_159_1497)"/>
<path d="M120.984 73.3005C120.244 73.0161 119.43 73.4141 118.908 74.0107C117.865 75.2044 116.184 75.6936 114.657 75.1118C113 74.4847 112.052 72.8029 112.223 71.0798C112.281 70.4953 112.019 69.8797 111.47 69.6718C110.92 69.4636 110.316 69.7529 109.971 70.2297C108.959 71.6319 107.134 72.2488 105.488 71.6218C103.831 70.9946 102.883 69.3129 103.054 67.5898C103.112 67.0052 102.851 66.3896 102.301 66.1817C101.751 65.9736 101.147 66.2629 100.803 66.7397C99.7903 68.1418 97.9653 68.7587 96.3199 68.1317C94.6741 67.5046 93.7187 65.8229 93.8868 64.0999C93.9439 63.5152 93.6823 62.8996 93.1329 62.6917C92.5829 62.4835 91.9787 62.7728 91.6343 63.2496C90.6218 64.6517 88.7968 65.2687 87.1514 64.6417C85.4942 64.0145 84.5463 62.3327 84.7174 60.6096C84.7754 60.0251 84.5138 59.4095 83.9644 59.2016C83.4144 58.9934 82.8102 59.2828 82.4658 59.7596C81.4533 61.1617 79.6283 61.7786 77.9829 61.1516C76.3257 60.5244 75.3778 58.8427 75.5489 57.1196C75.6069 56.535 75.3453 55.9195 74.7959 55.7115C74.2459 55.5034 73.6417 55.7927 73.2974 56.2695C72.2848 57.6716 70.4598 58.2885 68.8144 57.6615C67.1572 57.0344 66.2093 55.3526 66.3804 53.6295C66.4384 53.045 66.1768 52.4294 65.6274 52.2215C65.0774 52.0133 64.4732 52.3026 64.1289 52.7794C63.1163 54.1816 61.2913 54.7985 59.6459 54.1715C58.0789 53.5784 57.1461 52.0424 57.1939 50.4201C57.2158 49.6772 56.8913 48.8941 56.1966 48.63C55.4986 48.3647 54.7177 48.716 54.4534 49.4144L33.0747 105.884C30.1483 113.614 34.0263 122.254 41.7466 125.206L81.0662 140.238C88.8214 143.203 97.5097 139.304 100.45 131.539L121.809 75.1438C122.088 74.407 121.719 73.5832 120.984 73.3005Z" fill="white" stroke="#323FD4" stroke-width="3" stroke-miterlimit="10"/>
<mask id="mask0_159_1497" style="mask-type:alpha" maskUnits="userSpaceOnUse" x="58" y="64" width="38" height="38">
<rect x="58.5018" y="64.2334" width="37.4444" height="37.5062" fill="#D9D9D9"/>
</mask>
<g mask="url(#mask0_159_1497)">
<path d="M77.3021 95.4885C73.8177 95.4885 70.8534 94.2773 68.4091 91.8551C65.9648 89.4328 64.7426 86.4766 64.7426 82.9864V82.7129L63.3385 84.1194C63.0524 84.4059 62.6884 84.5492 62.2463 84.5492C61.8043 84.5492 61.4402 84.4059 61.1542 84.1194C60.8682 83.8329 60.7252 83.4683 60.7252 83.0255C60.7252 82.5827 60.8682 82.2181 61.1542 81.9316L65.2107 77.8684C65.3667 77.7121 65.5357 77.6012 65.7178 77.5355C65.8998 77.4709 66.0948 77.4386 66.3028 77.4386C66.5108 77.4386 66.7059 77.4709 66.8879 77.5355C67.0699 77.6012 67.2389 77.7121 67.395 77.8684L71.4514 81.9316C71.7375 82.2181 71.8805 82.5827 71.8805 83.0255C71.8805 83.4683 71.7375 83.8329 71.4514 84.1194C71.1654 84.4059 70.8014 84.5492 70.3593 84.5492C69.9173 84.5492 69.5532 84.4059 69.2672 84.1194L67.863 82.7129V82.9864C67.863 85.591 68.7799 87.8049 70.6136 89.6281C72.4463 91.4514 74.6758 92.363 77.3021 92.363C77.8222 92.363 78.3292 92.3177 78.8233 92.227C79.3174 92.1353 79.8114 91.9983 80.3055 91.816C80.5655 91.7118 80.8453 91.6858 81.1449 91.7379C81.4434 91.79 81.6966 91.9202 81.9047 92.1286C82.3727 92.5974 82.5615 93.0985 82.471 93.6319C82.3795 94.1664 82.0347 94.5378 81.4366 94.7462C80.7605 94.9806 80.0782 95.1629 79.3897 95.2931C78.7001 95.4234 78.0042 95.4885 77.3021 95.4885ZM88.1454 88.5342C87.9374 88.5342 87.7424 88.5014 87.5603 88.4358C87.3783 88.3712 87.2093 88.2607 87.0533 88.1045L82.9968 84.0413C82.7108 83.7548 82.5678 83.3901 82.5678 82.9474C82.5678 82.5046 82.7108 82.1399 82.9968 81.8534C83.2828 81.5669 83.6469 81.4237 84.0889 81.4237C84.531 81.4237 84.895 81.5669 85.1811 81.8534L86.5852 83.2599V82.9864C86.5852 80.3818 85.6689 78.1679 83.8362 76.3447C82.0024 74.5215 79.7724 73.6099 77.1461 73.6099C76.626 73.6099 76.119 73.6557 75.6249 73.7474C75.1309 73.8381 74.6368 73.9745 74.1428 74.1569C73.8827 74.261 73.6034 74.2871 73.3049 74.235C73.0054 74.1829 72.7516 74.0527 72.5436 73.8443C72.0755 73.3755 71.8867 72.8738 71.9772 72.3394C72.0687 71.8059 72.4135 71.4351 73.0116 71.2267C73.6877 70.9923 74.3705 70.8099 75.0601 70.6797C75.7487 70.5495 76.444 70.4844 77.1461 70.4844C80.6305 70.4844 83.5949 71.6955 86.0392 74.1178C88.4835 76.5401 89.7056 79.4963 89.7056 82.9864V83.2599L91.1098 81.8534C91.3958 81.5669 91.7598 81.4237 92.2019 81.4237C92.644 81.4237 93.008 81.5669 93.294 81.8534C93.5801 82.1399 93.7231 82.5046 93.7231 82.9474C93.7231 83.3901 93.5801 83.7548 93.294 84.0413L89.2375 88.1045C89.0815 88.2607 88.9125 88.3712 88.7305 88.4358C88.5485 88.5014 88.3534 88.5342 88.1454 88.5342Z" fill="#323FD4"/>
</g>
<path d="M70.2585 111.765L95.448 100.651C102.069 97.7358 109.97 97.64 117.177 100.405C118.866 101.048 119.834 102.663 119.33 103.991L109.984 128.681L100.993 152.427C100.489 153.755 97.437 154.904 95.7341 154.261L85.3123 150.278L69.1278 114.776C68.5828 113.585 69.0733 112.285 70.2585 111.765Z" fill="url(#paint1_linear_159_1497)"/>
<path d="M68.7191 111.135L57.2482 86.0064C54.2375 79.4095 48.3931 74.0581 41.1863 71.3071C39.497 70.6639 37.7124 71.2113 37.2083 72.5526L27.8627 97.2431L18.7623 121.277C18.2583 122.604 19.5525 125.122 21.2418 125.779L31.9906 129.858L67.5747 114.16C68.7736 113.626 69.264 112.326 68.7191 111.135Z" fill="url(#paint2_linear_159_1497)"/>
<path d="M104.753 142.504L100.802 152.947C100.216 154.507 98.0909 155.15 96.0747 154.37L21.2418 125.765C19.2255 124.999 18.0676 123.097 18.6534 121.536L22.6041 111.093L70.4356 102.06C71.2121 101.91 72.0432 101.992 72.8197 102.266C73.678 102.567 74.4545 103.101 74.9994 103.799L104.753 142.504Z" fill="url(#paint3_linear_159_1497)"/>
<path d="M24.2526 106.741L64.6321 102.184L65.0408 103.087L22.6041 111.107L24.2526 106.741Z" fill="url(#paint4_linear_159_1497)"/>
<path d="M106.401 138.152L79.2499 107.768L78.3507 108.179L104.753 142.504L106.401 138.152Z" fill="url(#paint5_linear_159_1497)"/>
</g>
</g>
<defs>
<linearGradient id="paint0_linear_159_1497" x1="27.2656" y1="97.5465" x2="119.125" y2="97.5465" gradientUnits="userSpaceOnUse">
<stop stop-color="#323FD4"/>
<stop offset="1" stop-color="#F55B7A"/>
</linearGradient>
<linearGradient id="paint1_linear_159_1497" x1="68.906" y1="127.755" x2="119.463" y2="127.755" gradientUnits="userSpaceOnUse">
<stop stop-color="#323FD4"/>
<stop offset="1" stop-color="#F55B7A"/>
</linearGradient>
<linearGradient id="paint2_linear_159_1497" x1="18.6522" y1="101.849" x2="68.9405" y2="101.849" gradientUnits="userSpaceOnUse">
<stop stop-color="#323FD4"/>
<stop offset="1" stop-color="#F55B7A"/>
</linearGradient>
<linearGradient id="paint3_linear_159_1497" x1="18.5013" y1="129.599" x2="104.753" y2="129.599" gradientUnits="userSpaceOnUse">
<stop stop-color="#323FD4"/>
<stop offset="1" stop-color="#F55B7A"/>
</linearGradient>
<linearGradient id="paint4_linear_159_1497" x1="22.6041" y1="106.858" x2="65.0408" y2="106.858" gradientUnits="userSpaceOnUse">
<stop stop-color="#F55B7A"/>
<stop offset="1" stop-color="#4B7FFF"/>
</linearGradient>
<linearGradient id="paint5_linear_159_1497" x1="78.3507" y1="125.963" x2="106.401" y2="125.963" gradientUnits="userSpaceOnUse">
<stop stop-color="#F55B7A"/>
<stop offset="1" stop-color="#4B7FFF"/>
</linearGradient>
<clipPath id="clip0_159_1497">
<rect width="296" height="270.847" fill="white" transform="translate(0 0.109863)"/>
</clipPath>
<clipPath id="clip1_159_1497">
<rect width="337" height="294" fill="white" transform="translate(-49 0.109863)"/>
</clipPath>
</defs>
</svg>
