<svg width="12" height="12" viewBox="0 0 12 12" fill="none" xmlns="http://www.w3.org/2000/svg">
<path d="M5.99996 8.38317C5.91107 8.38317 5.82774 8.36917 5.74996 8.34117C5.67218 8.31362 5.59996 8.2665 5.53329 8.19984L3.13329 5.79984C3.01107 5.67761 2.94996 5.52206 2.94996 5.33317C2.94996 5.14428 3.01107 4.98873 3.13329 4.8665C3.25551 4.74428 3.41374 4.68028 3.60796 4.6745C3.80263 4.66917 3.96107 4.72762 4.08329 4.84984L5.33329 6.09984V1.33317C5.33329 1.14428 5.39729 0.985837 5.52529 0.857837C5.65285 0.730282 5.81107 0.666504 5.99996 0.666504C6.18885 0.666504 6.34729 0.730282 6.47529 0.857837C6.60285 0.985837 6.66663 1.14428 6.66663 1.33317V6.09984L7.91663 4.84984C8.03885 4.72762 8.19729 4.66917 8.39196 4.6745C8.58618 4.68028 8.7444 4.74428 8.86663 4.8665C8.98885 4.98873 9.04996 5.14428 9.04996 5.33317C9.04996 5.52206 8.98885 5.67761 8.86663 5.79984L6.46663 8.19984C6.39996 8.2665 6.32774 8.31362 6.24996 8.34117C6.17218 8.36917 6.08885 8.38317 5.99996 8.38317ZM1.99996 11.3332C1.63329 11.3332 1.31951 11.2027 1.05863 10.9418C0.797293 10.6805 0.666626 10.3665 0.666626 9.99984V8.6665C0.666626 8.47762 0.730404 8.31917 0.857959 8.19117C0.985959 8.06362 1.1444 7.99984 1.33329 7.99984C1.52218 7.99984 1.68063 8.06362 1.80863 8.19117C1.93618 8.31917 1.99996 8.47762 1.99996 8.6665V9.99984H9.99996V8.6665C9.99996 8.47762 10.064 8.31917 10.192 8.19117C10.3195 8.06362 10.4777 7.99984 10.6666 7.99984C10.8555 7.99984 11.0137 8.06362 11.1413 8.19117C11.2693 8.31917 11.3333 8.47762 11.3333 8.6665V9.99984C11.3333 10.3665 11.2028 10.6805 10.942 10.9418C10.6806 11.2027 10.3666 11.3332 9.99996 11.3332H1.99996Z" fill="#636E72"/>
</svg>
