<svg width="16" height="16" viewBox="0 0 16 16" fill="none" xmlns="http://www.w3.org/2000/svg">
<g clip-path="url(#clip0_182_1569)">
<path d="M8.73266 12.0106C8.27745 11.7558 7.72254 11.7558 7.26733 12.0106L4.94547 13.3103C4.57318 13.5187 4.1277 13.1951 4.21084 12.7766L4.72934 10.1666C4.83099 9.65495 4.65949 9.1272 4.27646 8.77302L2.32259 6.9663C2.00932 6.67663 2.17946 6.15293 2.60316 6.10268L5.24574 5.78927C5.76374 5.72783 6.21263 5.4017 6.43113 4.92804L7.54597 2.51134C7.72469 2.12393 8.2753 2.12393 8.45401 2.51134L9.56885 4.92804C9.78736 5.4017 10.2362 5.72783 10.7543 5.78927L13.3968 6.10268C13.8205 6.15293 13.9907 6.67663 13.6774 6.9663L11.7235 8.77302C11.3405 9.1272 11.169 9.65494 11.2707 10.1666L11.7892 12.7766C11.8723 13.1951 11.4268 13.5187 11.0545 13.3103L8.73266 12.0106Z" fill="white" stroke="#636E72"/>
</g>
<defs>
<clipPath id="clip0_182_1569">
<rect width="16" height="16" fill="white"/>
</clipPath>
</defs>
</svg>
