<svg width="41" height="40" viewBox="0 0 41 40" fill="none" xmlns="http://www.w3.org/2000/svg">
<path d="M20.5 39.6366C30.5415 39.6366 38.6818 31.4963 38.6818 21.4548C38.6818 11.4132 30.5415 3.27295 20.5 3.27295C10.4585 3.27295 2.31818 11.4132 2.31818 21.4548C2.31818 31.4963 10.4585 39.6366 20.5 39.6366Z" fill="#E7EFFF"/>
<path d="M20.5 39.6366C30.5415 39.6366 38.6818 31.4963 38.6818 21.4548C38.6818 11.4132 30.5415 3.27295 20.5 3.27295C10.4585 3.27295 2.31818 11.4132 2.31818 21.4548C2.31818 31.4963 10.4585 39.6366 20.5 39.6366Z" fill="#E7EFFF"/>
<path d="M3.04544 6.18182C3.64793 6.18182 4.13635 5.6934 4.13635 5.09091C4.13635 4.48842 3.64793 4 3.04544 4C2.44295 4 1.95453 4.48842 1.95453 5.09091C1.95453 5.6934 2.44295 6.18182 3.04544 6.18182Z" fill="#00C99F"/>
<path d="M5.22726 19.6364C5.82975 19.6364 6.31817 19.148 6.31817 18.5455C6.31817 17.943 5.82975 17.4546 5.22726 17.4546C4.62477 17.4546 4.13635 17.943 4.13635 18.5455C4.13635 19.148 4.62477 19.6364 5.22726 19.6364Z" fill="#FF4D69"/>
<path d="M36.1363 19.2726C36.7388 19.2726 37.2272 18.7842 37.2272 18.1817C37.2272 17.5792 36.7388 17.0908 36.1363 17.0908C35.5338 17.0908 35.0454 17.5792 35.0454 18.1817C35.0454 18.7842 35.5338 19.2726 36.1363 19.2726Z" fill="#FFA100"/>
<path d="M37.5909 36.7272C38.1934 36.7272 38.6818 36.2388 38.6818 35.6363C38.6818 35.0338 38.1934 34.5454 37.5909 34.5454C36.9884 34.5454 36.5 35.0338 36.5 35.6363C36.5 36.2388 36.9884 36.7272 37.5909 36.7272Z" fill="#00C99F"/>
<path d="M34.6818 21.4546V32.8255C32.9781 34.949 30.8194 36.6629 28.3648 37.8405C25.9102 39.0181 23.2225 39.6295 20.5 39.6295C17.7775 39.6295 15.0898 39.0181 12.6352 37.8405C10.1806 36.6629 8.02184 34.949 6.31818 32.8255V21.4546H34.6818Z" fill="#4E6AFF"/>
<path d="M34.6818 21.4546L20.5 31.6365L6.31818 21.4546L20.5 10.9092L34.6818 21.4546Z" fill="#323FD4"/>
<path d="M31.4091 9.09104V23.8038L20.5 31.6365L9.59088 23.8038V9.09104C9.59088 8.89816 9.6675 8.71317 9.80389 8.57678C9.94028 8.44039 10.1253 8.36377 10.3182 8.36377H30.6818C30.8747 8.36377 31.0597 8.44039 31.196 8.57678C31.3324 8.71317 31.4091 8.89816 31.4091 9.09104Z" fill="white"/>
<path d="M32.8636 13.8182C36.2778 13.8182 39.0455 11.0505 39.0455 7.63641C39.0455 4.22228 36.2778 1.45459 32.8636 1.45459C29.4495 1.45459 26.6818 4.22228 26.6818 7.63641C26.6818 11.0505 29.4495 13.8182 32.8636 13.8182Z" fill="#FF4D69"/>
<path d="M32.7315 11.1207C32.1704 11.1184 31.691 10.9704 31.2933 10.6768C30.8955 10.3833 30.5913 9.95597 30.3806 9.39489C30.1699 8.83381 30.0646 8.15791 30.0646 7.36719C30.0646 6.57884 30.1699 5.9053 30.3806 5.34659C30.5937 4.78788 30.8991 4.36174 31.2968 4.06818C31.6969 3.77462 32.1751 3.62784 32.7315 3.62784C33.2878 3.62784 33.7649 3.7758 34.1626 4.07173C34.5603 4.36529 34.8645 4.79143 35.0752 5.35014C35.2883 5.90649 35.3948 6.57884 35.3948 7.36719C35.3948 8.16027 35.2895 8.83736 35.0788 9.39844C34.8681 9.95715 34.5639 10.3845 34.1661 10.6804C33.7684 10.974 33.2902 11.1207 32.7315 11.1207ZM32.7315 10.1726C33.2239 10.1726 33.6086 9.93229 33.8856 9.4517C34.1649 8.97112 34.3046 8.27628 34.3046 7.36719C34.3046 6.76349 34.2407 6.25331 34.1129 5.83665C33.9874 5.41761 33.8063 5.10038 33.5695 4.88494C33.3352 4.66714 33.0558 4.55824 32.7315 4.55824C32.2414 4.55824 31.8567 4.79972 31.5774 5.28267C31.298 5.76562 31.1571 6.46046 31.1548 7.36719C31.1548 7.97325 31.2175 8.4858 31.343 8.90483C31.4708 9.3215 31.6519 9.63755 31.8863 9.85298C32.1207 10.0661 32.4024 10.1726 32.7315 10.1726Z" fill="white"/>
<path d="M25.5036 16.5126C25.3123 15.496 24.8158 14.5619 24.0804 13.8345C23.3449 13.1072 22.4053 12.6211 21.3867 12.441C20.3681 12.2609 19.3189 12.3954 18.3786 12.8266C17.4383 13.2577 16.6517 13.965 16.1235 14.8544C15.5953 15.7437 15.3505 16.7729 15.4217 17.8048C15.4929 18.8367 15.8768 19.8225 16.5223 20.6308C17.1677 21.4391 18.0441 22.0317 19.0346 22.3295C20.0252 22.6273 21.083 22.6164 22.0672 22.298C22.1142 22.2846 22.1581 22.2619 22.1961 22.2311C22.2341 22.2004 22.2655 22.1623 22.2885 22.1191C22.3115 22.0759 22.3255 22.0285 22.3297 21.9798C22.3339 21.9311 22.3283 21.882 22.3131 21.8356C22.298 21.7891 22.2736 21.7461 22.2414 21.7093C22.2093 21.6724 22.17 21.6424 22.126 21.6211C22.082 21.5998 22.0342 21.5876 21.9853 21.5852C21.9365 21.5828 21.8877 21.5902 21.8418 21.6071C20.9323 21.9006 19.9516 21.8873 19.0503 21.5694C18.149 21.2515 17.3771 20.6465 16.853 19.8474C16.3289 19.0482 16.0816 18.0991 16.1492 17.1458C16.2167 16.1925 16.5954 15.2878 17.227 14.5705C17.8585 13.8533 18.7081 13.3632 19.6452 13.1756C20.5823 12.988 21.5551 13.1132 22.4141 13.5319C23.2731 13.9507 23.9709 14.64 24.4003 15.4938C24.8297 16.3476 24.9669 17.3187 24.7909 18.258C24.7331 18.5629 24.5637 18.8354 24.3158 19.0221C24.0679 19.2088 23.7593 19.2964 23.4503 19.2677C23.1413 19.2391 22.8541 19.0963 22.6447 18.8672C22.4354 18.6382 22.3189 18.3393 22.3181 18.0289V15.2726C22.3181 15.1761 22.2798 15.0836 22.2116 15.0154C22.1434 14.9473 22.0509 14.9089 21.9545 14.9089H20.8636C20.0921 14.9089 19.3521 15.2154 18.8066 15.761C18.261 16.3066 17.9545 17.0465 17.9545 17.818C17.9559 18.2785 18.103 18.7268 18.3747 19.0986C18.6464 19.4704 19.0287 19.7467 19.467 19.8879C19.9053 20.0292 20.3771 20.0281 20.8147 19.8849C21.2524 19.7418 21.6335 19.4638 21.9036 19.0908C22.1174 19.4227 22.4259 19.683 22.7892 19.8378C23.1524 19.9927 23.5538 20.0351 23.9414 19.9595C24.329 19.884 24.685 19.6939 24.9635 19.414C25.242 19.134 25.4301 18.7769 25.5036 18.3889C25.6198 17.7689 25.6198 17.1326 25.5036 16.5126ZM20.1363 19.2726C19.7505 19.2726 19.3806 19.1193 19.1078 18.8466C18.835 18.5738 18.6818 18.2038 18.6818 17.818C18.6818 17.2394 18.9116 16.6844 19.3208 16.2753C19.73 15.8661 20.2849 15.6362 20.8636 15.6362H21.5909V17.818C21.5909 18.2038 21.4376 18.5738 21.1648 18.8466C20.8921 19.1193 20.5221 19.2726 20.1363 19.2726Z" fill="#7F96D1"/>
<path d="M25.2272 25.8181H15.7727C15.6763 25.8181 15.5838 25.7798 15.5156 25.7116C15.4474 25.6434 15.4091 25.5509 15.4091 25.4545C15.4091 25.358 15.4474 25.2655 15.5156 25.1973C15.5838 25.1291 15.6763 25.0908 15.7727 25.0908H25.2272C25.3237 25.0908 25.4162 25.1291 25.4844 25.1973C25.5526 25.2655 25.5909 25.358 25.5909 25.4545C25.5909 25.5509 25.5526 25.6434 25.4844 25.7116C25.4162 25.7798 25.3237 25.8181 25.2272 25.8181Z" fill="#A5BCED"/>
<path d="M31.7727 33.8181H29.5909C29.4944 33.8181 29.4019 33.7798 29.3337 33.7116C29.2655 33.6434 29.2272 33.5509 29.2272 33.4545C29.2272 33.358 29.2655 33.2655 29.3337 33.1973C29.4019 33.1291 29.4944 33.0908 29.5909 33.0908H31.7727C31.8691 33.0908 31.9616 33.1291 32.0298 33.1973C32.098 33.2655 32.1363 33.358 32.1363 33.4545C32.1363 33.5509 32.098 33.6434 32.0298 33.7116C31.9616 33.7798 31.8691 33.8181 31.7727 33.8181Z" fill="white"/>
<path d="M31.7727 31.6365H29.5909C29.4944 31.6365 29.4019 31.5981 29.3337 31.5299C29.2655 31.4618 29.2272 31.3693 29.2272 31.2728C29.2272 31.1764 29.2655 31.0839 29.3337 31.0157C29.4019 30.9475 29.4944 30.9092 29.5909 30.9092H31.7727C31.8691 30.9092 31.9616 30.9475 32.0298 31.0157C32.098 31.0839 32.1363 31.1764 32.1363 31.2728C32.1363 31.3693 32.098 31.4618 32.0298 31.5299C31.9616 31.5981 31.8691 31.6365 31.7727 31.6365Z" fill="white"/>
<path d="M12.8636 10.5456H11.409C11.3126 10.5456 11.2201 10.5073 11.1519 10.4391C11.0837 10.3709 11.0454 10.2784 11.0454 10.182C11.0454 10.0856 11.0837 9.99306 11.1519 9.92487C11.2201 9.85667 11.3126 9.81836 11.409 9.81836H12.8636C12.96 9.81836 13.0525 9.85667 13.1207 9.92487C13.1889 9.99306 13.2272 10.0856 13.2272 10.182C13.2272 10.2784 13.1889 10.3709 13.1207 10.4391C13.0525 10.5073 12.96 10.5456 12.8636 10.5456Z" fill="#8FA2FF"/>
</svg>
