<svg
    width="14"
    height="14"
    viewBox="0 0 14 14"
    fill="none"
    xmlns="http://www.w3.org/2000/svg"
>
    <path
        d="M2.64201 1.9555C3.85172 0.907276 5.39933 0.33127 7.00001 0.333503C10.682 0.333503 13.6667 3.31817 13.6667 7.00017C13.6667 8.42417 13.22 9.74417 12.46 10.8268L10.3333 7.00017H12.3333C12.3334 5.95458 12.0262 4.93204 11.4498 4.05967C10.8734 3.18731 10.0533 2.50361 9.09146 2.09359C8.12963 1.68356 7.06849 1.5653 6.03998 1.75351C5.01148 1.94173 4.06098 2.4281 3.30668 3.15217L2.64201 1.9555ZM11.358 12.0448C10.1483 13.0931 8.60069 13.6691 7.00001 13.6668C3.31801 13.6668 0.333344 10.6822 0.333344 7.00017C0.333344 5.57617 0.78001 4.25617 1.54001 3.1735L3.66668 7.00017H1.66668C1.66659 8.04575 1.97384 9.0683 2.55023 9.94066C3.12662 10.813 3.94672 11.4967 4.90856 11.9068C5.87039 12.3168 6.93153 12.435 7.96004 12.2468C8.98854 12.0586 9.93904 11.5722 10.6933 10.8482L11.358 12.0448Z"
        fill="#636E72"
    />
</svg>