<svg
    width="16"
    height="16"
    viewBox="0 0 16 16"
    fill="none"
    xmlns="http://www.w3.org/2000/svg"
>
    <path
        d="M8.48847 12.4469C8.18499 12.277 7.81505 12.277 7.51158 12.4469L5.18973 13.7466C4.44513 14.1634 3.55418 13.5161 3.72045 12.6791L4.23895 10.0692C4.30672 9.72808 4.19239 9.37625 3.93704 9.14013L1.98316 7.33341C1.35663 6.75407 1.69691 5.70666 2.54431 5.60616L5.18688 5.29275C5.53221 5.25179 5.83147 5.03437 5.97714 4.71859L7.09198 2.3019C7.44941 1.52708 8.55063 1.52708 8.90806 2.3019L10.0229 4.71859C10.1686 5.03437 10.4678 5.25179 10.8132 5.29275L13.4557 5.60616C14.3031 5.70666 14.6434 6.75407 14.0169 7.33341L12.063 9.14013C11.8077 9.37625 11.6933 9.72808 11.7611 10.0692L12.2796 12.6791C12.4459 13.5161 11.5549 14.1634 10.8103 13.7466L8.48847 12.4469Z"
        fill="#FFC700"
    />
</svg>