<svg width="63" height="65" viewBox="0 0 63 65" fill="none" xmlns="http://www.w3.org/2000/svg">
<path fill-rule="evenodd" clip-rule="evenodd" d="M5.57248 0.873258C4.11849 1.19487 3.08034 1.78672 2.07778 2.86571C0.651469 4.4008 0.275571 5.43163 0.0985752 8.29277C0.0169117 9.6131 -0.0218167 19.6066 0.0125311 30.5005C0.070011 48.6908 0.100328 50.4169 0.385274 51.6456C1.52769 56.5737 5.04535 61.0993 9.34022 63.1668C11.3974 64.157 12.6173 64.4752 14.8604 64.6061C19.6039 64.8833 23.695 62.7858 27.935 57.9029C29.7235 55.8434 30.3507 55.3914 31.4204 55.3914C32.3714 55.3914 32.9024 55.7938 34.7474 57.912C39.0044 62.8001 43.0676 64.8829 47.8062 64.6061C50.0525 64.475 51.2725 64.1562 53.3264 63.1641C55.9925 61.8763 57.8836 60.1828 59.7149 57.4427C60.7994 55.8201 61.321 54.7527 61.9366 52.8942C62.2694 51.8899 62.439 50.8387 62.439 49.7807V28.6352V5.89237L61.9666 4.86618C61.0015 2.7701 59.0647 1.24267 56.8428 0.825454C55.304 0.536665 6.89119 0.581793 5.57248 0.873258ZM7.18472 10.2982C7.02525 10.4606 6.97443 13.4537 6.97443 22.678V34.8437L8.15733 34.2342C13.767 31.3433 19.8271 31.7421 24.7617 35.3271C26.0935 36.2946 28.8659 39.1877 30.1863 40.9876C30.7441 41.7479 31.2614 42.3701 31.3357 42.3701C31.41 42.3701 32.0627 41.5875 32.7857 40.6309C34.2139 38.7417 36.9099 35.9769 38.1678 35.1113C43.0636 31.7423 48.8597 31.4052 54.334 34.1714L55.6921 34.8576V22.6555C55.6921 10.7743 55.6832 10.4486 55.3532 10.2688C54.8834 10.0128 54.0349 10.0382 53.3646 10.328C52.7158 10.6084 52.4023 10.8553 42.7611 18.676C38.8102 21.8808 35.1447 24.7955 34.6156 25.1531C32.8833 26.3238 31.3573 26.5789 29.6785 25.9783C28.2296 25.4599 28.3019 25.5158 13.7765 13.7023C9.72015 10.4033 9.22999 10.0842 8.21866 10.0842C7.76566 10.0842 7.30038 10.1805 7.18472 10.2982ZM13.5194 40.2934C12.0339 40.6782 10.6801 41.4598 9.44502 42.646C8.1016 43.9358 7.59392 44.8562 7.21679 46.6857C6.74031 48.9974 7.34542 51.5209 8.87057 53.5813C10.8151 56.2084 14.2952 57.6072 17.1861 56.9238C19.9617 56.2678 22.4463 54.3431 25.4027 50.5589C27.3621 48.0509 27.2797 48.2794 26.5938 47.257C25.7053 45.932 22.2762 42.5024 21.0195 41.6819C19.2704 40.5399 18.1916 40.1923 16.1747 40.1213C15.1026 40.0836 14.0718 40.1504 13.5194 40.2934ZM44.523 40.3262C42.4648 40.8904 40.5781 42.2245 38.1594 44.8257C36.3908 46.7279 35.4657 47.9828 35.5896 48.3115C35.6778 48.545 36.7219 49.8893 38.498 52.0551C41.2773 55.4448 44.8822 57.4308 47.6246 57.083C51.276 56.6201 54.0138 54.3831 55.1782 50.9119C55.8825 48.8122 55.6143 45.8651 54.5655 44.1738C53.4888 42.4378 50.9585 40.6867 48.8929 40.2483C47.6434 39.983 45.6446 40.0187 44.523 40.3262Z" fill="white"/>
</svg>
