<svg width="21" height="20" viewBox="0 0 21 20" fill="none" xmlns="http://www.w3.org/2000/svg">
<g clip-path="url(#clip0_205_4830)">
<path d="M10.5 20C16.0228 20 20.5 15.5228 20.5 10C20.5 4.47715 16.0228 0 10.5 0C4.97715 0 0.5 4.47715 0.5 10C0.5 15.5228 4.97715 20 10.5 20Z" fill="#007BFF"/>
<path d="M13.752 3.06934H11.5368C10.2222 3.06934 8.76004 3.62224 8.76004 5.52783C8.76646 6.19181 8.76004 6.8277 8.76004 7.54336H7.23926V9.96345H8.80711V16.9305H11.6881V9.91748H13.5897L13.7617 7.53657H11.6385C11.6385 7.53657 11.6432 6.47745 11.6385 6.16987C11.6385 5.41683 12.422 5.45995 12.4691 5.45995C12.842 5.45995 13.567 5.46104 13.7531 5.45995V3.06934H13.752Z" fill="white"/>
</g>
<defs>
<clipPath id="clip0_205_4830">
<rect width="20" height="20" fill="white" transform="translate(0.5)"/>
</clipPath>
</defs>
</svg>
