<svg width="21" height="20" viewBox="0 0 21 20" fill="none" xmlns="http://www.w3.org/2000/svg">
<path d="M20.2662 10.2215C20.2662 9.4021 20.1998 8.80416 20.0559 8.18408H10.6992V11.8824H16.1914C16.0807 12.8015 15.4827 14.1856 14.154 15.1157L14.1353 15.2395L17.0937 17.5313L17.2987 17.5518C19.1811 15.8133 20.2662 13.2555 20.2662 10.2215Z" fill="#4285F4"/>
<path d="M10.6995 19.9654C13.3902 19.9654 15.6491 19.0795 17.299 17.5515L14.1543 15.1154C13.3128 15.7022 12.1833 16.1119 10.6995 16.1119C8.0642 16.1119 5.82749 14.3735 5.03016 11.9707L4.91329 11.9806L1.8371 14.3613L1.79688 14.4731C3.43565 17.7286 6.80184 19.9654 10.6995 19.9654Z" fill="#34A853"/>
<path d="M5.02966 11.971C4.81928 11.3509 4.69752 10.6865 4.69752 10C4.69752 9.31345 4.81928 8.6491 5.01859 8.02902L5.01302 7.89696L1.89828 5.47803L1.79638 5.5265C1.12096 6.87742 0.733398 8.39444 0.733398 10C0.733398 11.6056 1.12096 13.1225 1.79638 14.4734L5.02966 11.971Z" fill="#FBBC05"/>
<path d="M10.6995 3.88754C12.5708 3.88754 13.8331 4.69586 14.5529 5.37136L17.3654 2.62525C15.6381 1.01968 13.3902 0.0341797 10.6995 0.0341797C6.80184 0.0341797 3.43565 2.2709 1.79688 5.52632L5.01909 8.02884C5.82749 5.62601 8.0642 3.88754 10.6995 3.88754Z" fill="url(#paint0_linear_205_4824)"/>
<defs>
<linearGradient id="paint0_linear_205_4824" x1="1.79687" y1="4.22186" x2="17.3654" y2="4.22186" gradientUnits="userSpaceOnUse">
<stop stop-color="#323FD4"/>
<stop offset="1" stop-color="#F55B7A"/>
</linearGradient>
</defs>
</svg>
