<svg width="23" height="18" viewBox="0 0 23 18" fill="none" xmlns="http://www.w3.org/2000/svg">
<path d="M6.99901 17.9999C15.3085 17.9999 19.8527 11.1133 19.8527 5.14142C19.8527 4.94584 19.8487 4.75116 19.8399 4.55729C20.7241 3.91726 21.4872 3.12481 22.0933 2.21708C21.2839 2.57709 20.4128 2.81939 19.499 2.92863C20.4318 2.36916 21.1478 1.48405 21.4856 0.429013C20.5988 0.955277 19.6287 1.32626 18.617 1.52599C17.7926 0.647549 16.619 0.0981445 15.3194 0.0981445C12.8246 0.0981445 10.8015 2.12202 10.8015 4.61677C10.8015 4.97144 10.8412 5.31632 10.9187 5.64723C7.16406 5.45824 3.8347 3.65992 1.60652 0.925473C1.2052 1.61515 0.994114 2.39899 0.994815 3.19693C0.994815 4.76486 1.79234 6.14897 3.00518 6.95876C2.28777 6.93684 1.58611 6.74299 0.959191 6.39351C0.95852 6.41249 0.95852 6.43097 0.95852 6.45125C0.95852 8.63987 2.5157 10.4672 4.58281 10.8813C4.19458 10.9871 3.79397 11.0405 3.39159 11.0403C3.101 11.0403 2.81779 11.0117 2.54255 10.9589C3.11769 12.7545 4.78542 14.0612 6.76271 14.0977C5.21649 15.3101 3.26874 16.0322 1.15181 16.0322C0.791697 16.0325 0.431876 16.0116 0.0742188 15.9696C2.07357 17.2515 4.44761 17.9996 6.99923 17.9996" fill="#1DA1F2"/>
</svg>
