<svg width="48" height="49" viewBox="0 0 48 49" fill="none" xmlns="http://www.w3.org/2000/svg">
<rect y="0.5" width="48" height="48" rx="24" fill="url(#paint0_linear_165_1364)"/>
<g clip-path="url(#clip0_165_1364)">
<path d="M24.4919 31.7186C24.3461 31.8283 24.173 31.8828 24 31.8828C23.827 31.8828 23.6539 31.8283 23.5081 31.7186L10 21.6287V36.039C10 37.3961 11.1039 38.5 12.4609 38.5H35.5391C36.8961 38.5 38 37.3961 38 36.039V21.6287L24.4919 31.7186Z" fill="white"/>
<path d="M33.0234 17.1177V23.2699L37.1798 20.1938L33.0234 17.1177Z" fill="white"/>
<path d="M10.8202 20.1938L14.9766 23.2699V17.1177L10.8202 20.1938Z" fill="white"/>
<path d="M30.5625 10.5H17.4375C16.9845 10.5 16.6172 10.8673 16.6172 11.3203V24.5003L24 30.0371L31.3828 24.5003V11.3203C31.3828 10.8673 31.0155 10.5 30.5625 10.5ZM24 23.6797H19.0781C18.6247 23.6797 18.2578 23.3128 18.2578 22.8594C18.2578 22.406 18.6247 22.0391 19.0781 22.0391H24C24.4534 22.0391 24.8203 22.406 24.8203 22.8594C24.8203 23.3128 24.4534 23.6797 24 23.6797ZM28.9219 20.3984H19.0781C18.6247 20.3984 18.2578 20.0315 18.2578 19.5781C18.2578 19.1247 18.6247 18.7578 19.0781 18.7578H28.9219C29.3753 18.7578 29.7422 19.1247 29.7422 19.5781C29.7422 20.0315 29.3753 20.3984 28.9219 20.3984ZM28.9219 17.1172H19.0781C18.6247 17.1172 18.2578 16.7503 18.2578 16.2969C18.2578 15.8435 18.6247 15.4766 19.0781 15.4766H28.9219C29.3753 15.4766 29.7422 15.8435 29.7422 16.2969C29.7422 16.7503 29.3753 17.1172 28.9219 17.1172Z" fill="white"/>
</g>
<defs>
<linearGradient id="paint0_linear_165_1364" x1="-1.81652e-07" y1="25.6429" x2="48" y2="25.6429" gradientUnits="userSpaceOnUse">
<stop stop-color="#323FD4"/>
<stop offset="1" stop-color="#F55B7A"/>
</linearGradient>
<clipPath id="clip0_165_1364">
<rect width="28" height="28" fill="white" transform="translate(10 10.5)"/>
</clipPath>
</defs>
</svg>
