<svg width="48" height="49" viewBox="0 0 48 49" fill="none" xmlns="http://www.w3.org/2000/svg">
<rect y="0.5" width="48" height="48" rx="24" fill="url(#paint0_linear_165_1382)"/>
<path d="M32.925 13.5683L24.7583 11.7483C24.2582 11.6432 23.7418 11.6432 23.2417 11.7483L15.075 13.5683C14.2972 13.7409 13.6015 14.1738 13.103 14.7953C12.6045 15.4168 12.333 16.1898 12.3333 16.9866V21.7349C12.3186 25.0463 13.3058 28.2847 15.1652 31.0248C17.0245 33.7649 19.6691 35.8786 22.7517 37.0883C23.1477 37.251 23.5719 37.3342 24 37.3333C24.4269 37.3323 24.8499 37.2532 25.2483 37.0999C28.3299 35.8855 30.9731 33.769 32.832 31.0275C34.6909 28.286 35.6789 25.0472 35.6667 21.7349V16.9866C35.667 16.1898 35.3955 15.4168 34.897 14.7953C34.3985 14.1738 33.7028 13.7409 32.925 13.5683ZM29.5417 21.8866L23.93 27.4049C23.7114 27.6222 23.4157 27.7442 23.1075 27.7442C22.7993 27.7442 22.5036 27.6222 22.285 27.4049L19.625 24.7916C19.5157 24.6831 19.4289 24.5541 19.3696 24.4119C19.3104 24.2698 19.2799 24.1173 19.2799 23.9633C19.2799 23.8093 19.3104 23.6568 19.3696 23.5146C19.4289 23.3724 19.5157 23.2434 19.625 23.1349C19.8436 22.9176 20.1393 22.7957 20.4475 22.7957C20.7557 22.7957 21.0514 22.9176 21.27 23.1349L23.1133 24.9433L27.9083 20.2766C28.0179 20.1686 28.1476 20.0832 28.2902 20.0253C28.4327 19.9675 28.5853 19.9382 28.7391 19.9393C28.8929 19.9404 29.045 19.9718 29.1867 20.0317C29.3285 20.0915 29.457 20.1787 29.565 20.2883C29.673 20.3978 29.7584 20.5276 29.8163 20.6701C29.8741 20.8126 29.9034 20.9652 29.9023 21.119C29.9012 21.2729 29.8698 21.425 29.8099 21.5667C29.7501 21.7084 29.6629 21.8369 29.5533 21.9449L29.5417 21.8866Z" fill="white"/>
<defs>
<linearGradient id="paint0_linear_165_1382" x1="-1.81652e-07" y1="25.6429" x2="48" y2="25.6429" gradientUnits="userSpaceOnUse">
<stop stop-color="#323FD4"/>
<stop offset="1" stop-color="#F55B7A"/>
</linearGradient>
</defs>
</svg>
