<svg width="48" height="49" viewBox="0 0 48 49" fill="none" xmlns="http://www.w3.org/2000/svg">
<rect y="0.5" width="48" height="48" rx="24" fill="url(#paint0_linear_165_1390)"/>
<path fill-rule="evenodd" clip-rule="evenodd" d="M24.1091 13.0881C24.3478 13.0289 24.6116 12.9859 24.9012 12.9605H24.9139C25.127 12.9432 25.3442 12.9395 25.5655 12.9476C25.7358 12.9563 25.9061 12.9691 26.0767 12.9859C28.478 13.3948 30.5438 14.459 32.2728 16.1793C32.3495 16.2558 32.4302 16.3365 32.5155 16.4214L32.605 16.5494C33.0478 17.2133 33.1796 17.8392 33.0007 18.4266V18.4395C32.9838 18.4733 32.9665 18.5074 32.9496 18.5418H32.9625C32.6471 19.197 31.9275 19.5679 30.8035 19.6529C30.2074 19.6953 29.5984 19.6615 28.9767 19.5506C28.2528 19.4146 27.5076 19.1805 26.7411 18.8479C25.9999 18.5158 25.3442 18.1457 24.7737 17.7368C24.2372 17.3371 23.7813 16.903 23.4066 16.4343V16.4214C22.7252 15.5874 22.4908 14.8421 22.7043 14.1869L22.717 14.1357C22.717 14.1185 22.7212 14.1013 22.7296 14.0846V14.0718C22.9681 13.5948 23.4278 13.2672 24.1094 13.0881L24.1091 13.0881ZM22.0264 13.7908H22.0137C21.9968 13.8333 21.9841 13.8802 21.9753 13.9313C21.6348 14.8083 21.9115 15.8005 22.8058 16.9074C23.223 17.4347 23.7257 17.9163 24.3132 18.3506H24.3261V18.3634C24.9308 18.7977 25.6336 19.1932 26.434 19.551C27.2516 19.9088 28.0522 20.1596 28.8357 20.3043C29.5257 20.4238 30.1983 20.4619 30.8542 20.4194H30.867C32.3573 20.2999 33.2899 19.7722 33.6644 18.8359V18.8231C33.6817 18.7887 33.6946 18.7633 33.7028 18.7466L33.7286 18.6953C33.7966 18.5075 33.8391 18.3121 33.8564 18.1076C34.7762 19.4953 35.3555 21.0282 35.5937 22.7054C35.219 23.1568 34.6955 23.5012 34.0224 23.7396C33.4859 23.9187 32.86 24.0377 32.1445 24.0974C29.9813 24.2421 27.6646 23.7827 25.1948 22.7185C22.7334 21.637 20.8298 20.2574 19.4843 18.5802V18.5673C19.0074 17.9883 18.6582 17.4347 18.4366 16.9074V16.8945C18.0534 16.0342 17.9939 15.2384 18.2577 14.5061L18.2706 14.4932C18.2792 14.4507 18.2919 14.4125 18.3088 14.3786C18.343 14.2931 18.3813 14.2166 18.4239 14.1488C19.761 13.4078 21.2176 12.9693 22.793 12.8333C22.4354 13.0715 22.1798 13.3863 22.0263 13.7781L22.0264 13.7908ZM35.7084 24.4675C35.7084 25.8219 35.5082 27.0944 35.1079 28.2863C34.3244 28.6698 33.328 28.9125 32.1187 29.0148C31.6504 29.0486 31.1819 29.0611 30.7132 29.053C28.448 28.9846 26.0632 28.4058 23.5594 27.3162C20.7998 26.1071 18.6153 24.5957 17.0057 22.7818H16.993C16.8223 22.5947 16.6649 22.4073 16.5202 22.2201V22.2073C15.234 20.6319 14.6678 19.1973 14.8211 17.9033C14.8553 17.5799 14.9403 17.269 15.0767 16.9709C15.1022 16.8945 15.132 16.8262 15.166 16.7671C15.345 16.5626 15.5281 16.3668 15.7154 16.1794C16.2435 15.651 16.8012 15.1873 17.3889 14.787C17.2357 15.5451 17.3506 16.3495 17.734 17.2014C17.9809 17.7884 18.3641 18.4055 18.8835 19.0529C20.289 20.8243 22.2902 22.2801 24.8877 23.4208C27.4854 24.5448 29.9213 25.0258 32.1951 24.864H32.2083C33.0001 24.8048 33.6901 24.6724 34.2777 24.4679C34.8314 24.2641 35.2999 24.0041 35.6828 23.6889C35.6998 23.9441 35.7084 24.2039 35.7084 24.4675L35.7084 24.4675ZM34.7122 29.2955C34.1499 30.5046 33.3665 31.6238 32.3614 32.6546C32.0378 32.6965 31.6842 32.7476 31.3009 32.8074L31.3141 32.7951C31.0499 32.8204 30.7857 32.8462 30.5218 32.8715H30.5092C27.7072 33.0587 24.7052 32.4588 21.5026 31.0706C18.3003 29.683 15.8305 27.8948 14.0929 25.7064L14.0802 25.6935C13.8247 25.3788 13.5989 25.0721 13.403 24.774C13.037 24.221 12.7601 23.6883 12.5725 23.1775L12.3938 22.8585C12.6065 21.198 13.1472 19.6738 14.0162 18.2861C13.9906 19.64 14.625 21.1089 15.9196 22.6923C16.0729 22.8881 16.2432 23.0884 16.4306 23.2928C18.0999 25.1916 20.3738 26.7666 23.2524 28.0182C25.8586 29.1508 28.3371 29.7508 30.6877 29.8192H30.7003C31.1942 29.8278 31.6838 29.8149 32.1694 29.7809H32.1821C33.1445 29.7039 33.9877 29.5424 34.712 29.2953L34.7122 29.2955ZM20.0719 33.5737C17.1846 32.3055 14.9488 30.6832 13.3647 28.7081V28.6952C13.1433 28.431 12.9471 28.1717 12.7769 27.9162C12.4535 26.8345 12.2915 25.6851 12.2915 24.4675V24.4041C12.4279 24.6591 12.5853 24.9234 12.7642 25.1957C12.9769 25.511 13.22 25.8386 13.4921 26.1792C15.2979 28.4612 17.8654 30.3255 21.1955 31.7736C24.5255 33.221 27.6513 33.8425 30.5725 33.6379H30.5854C30.8492 33.6126 31.1088 33.5868 31.3644 33.5615C30.6065 34.1916 29.8015 34.7064 28.95 35.1069C28.72 35.1407 28.4815 35.1664 28.2344 35.1832C25.6967 35.3538 22.9755 34.8173 20.0716 33.5738L20.0719 33.5737ZM23.9934 36.1666C20.7656 36.1666 18.0065 35.0217 15.7155 32.7311C15.1449 32.1607 14.6466 31.5602 14.2208 30.9301C15.6857 32.2753 17.5166 33.4295 19.7144 34.3914C21.818 35.3023 23.8319 35.8555 25.7569 36.0513C25.1864 36.1286 24.5985 36.1666 23.9936 36.1666L23.9934 36.1666Z" fill="white"/>
<defs>
<linearGradient id="paint0_linear_165_1390" x1="-1.81652e-07" y1="25.6429" x2="48" y2="25.6429" gradientUnits="userSpaceOnUse">
<stop stop-color="#323FD4"/>
<stop offset="1" stop-color="#F55B7A"/>
</linearGradient>
</defs>
</svg>
