<svg width="288" height="42" viewBox="0 0 288 42" fill="none" xmlns="http://www.w3.org/2000/svg">
<path fill-rule="evenodd" clip-rule="evenodd" d="M3.56987 0.6556C2.63841 0.861631 1.97335 1.24078 1.33108 1.93201C0.417347 2.91543 0.176538 3.57581 0.0631497 5.40872C0.010834 6.25456 -0.0139763 12.6566 0.00802771 19.6355C0.0448508 31.2887 0.0642726 32.3945 0.246816 33.1816C0.978674 36.3387 3.23218 39.2379 5.98358 40.5624C7.30146 41.1967 8.08294 41.4006 9.51994 41.4845C12.5587 41.662 15.1796 40.3183 17.8958 37.1902C19.0416 35.8709 19.4434 35.5813 20.1287 35.5813C20.738 35.5813 21.0781 35.8391 22.26 37.1961C24.9872 40.3275 27.5902 41.6618 30.6258 41.4845C32.0649 41.4005 32.8464 41.1963 34.1622 40.5607C35.8702 39.7356 37.0817 38.6508 38.2548 36.8954C38.9496 35.8559 39.2837 35.1721 39.6781 33.9815C39.8913 33.3381 40 32.6647 40 31.9869V18.4406V3.87097L39.6973 3.21357C39.0791 1.87076 37.8383 0.892256 36.4149 0.624975C35.4291 0.439969 4.41467 0.46888 3.56987 0.6556ZM4.60271 6.69348C4.50055 6.79746 4.468 8.71494 4.468 14.6243V22.4179L5.22579 22.0275C8.81952 20.1755 12.7018 20.431 15.8629 22.7276C16.7162 23.3474 18.4922 25.2008 19.3381 26.3539C19.6955 26.8409 20.0269 27.2395 20.0745 27.2395C20.1221 27.2395 20.5401 26.7382 21.0033 26.1253C21.9183 24.9151 23.6454 23.1439 24.4512 22.5893C27.5876 20.4311 31.3008 20.2151 34.8077 21.9872L35.6778 22.4268V14.6099C35.6778 6.99847 35.6721 6.78981 35.4607 6.67462C35.1597 6.51064 34.6161 6.52687 34.1867 6.71256C33.7711 6.89219 33.5702 7.05035 27.3938 12.0605C24.8628 14.1136 22.5146 15.9808 22.1756 16.2099C21.0659 16.9599 20.0883 17.1233 19.0128 16.7385C18.0846 16.4064 18.1309 16.4422 8.82558 8.87423C6.22697 6.76078 5.91296 6.55635 5.26508 6.55635C4.97487 6.55635 4.67681 6.61806 4.60271 6.69348ZM8.66089 25.9091C7.70921 26.1556 6.84196 26.6564 6.05071 27.4163C5.19009 28.2426 4.86485 28.8322 4.62326 30.0042C4.31801 31.4851 4.70566 33.1017 5.68271 34.4217C6.9284 36.1047 9.15788 37.0008 11.0098 36.563C12.788 36.1427 14.3797 34.9097 16.2736 32.4855C17.5288 30.8788 17.4761 31.0252 17.0367 30.3702C16.4675 29.5214 14.2707 27.3243 13.4656 26.7986C12.3451 26.0671 11.654 25.8443 10.3619 25.7989C9.67509 25.7748 9.01475 25.8175 8.66089 25.9091ZM28.5225 25.9302C27.204 26.2916 25.9953 27.1462 24.4459 28.8127C23.3129 30.0313 22.7202 30.8352 22.7996 31.0458C22.8561 31.1953 23.5249 32.0565 24.6628 33.444C26.4433 35.6155 28.7527 36.8878 30.5095 36.6649C32.8487 36.3684 34.6026 34.9353 35.3485 32.7116C35.7997 31.3665 35.6279 29.4785 34.956 28.395C34.2663 27.2829 32.6453 26.1611 31.322 25.8802C30.5215 25.7103 29.241 25.7332 28.5225 25.9302Z" fill="url(#paint0_linear_103_1332)"/>
<path d="M52.6875 15.8594V12.7188H66.2109V15.8594H61.3594V28.7188H57.5469V15.8594H52.6875Z" fill="#18191A"/>
<path d="M69.0896 28.7188V12.7188H80.2459V15.8594H72.9568V19.1406H79.6755V22.2891H72.9568V25.5781H80.2459V28.7188H69.0896Z" fill="#18191A"/>
<path d="M83.6577 12.7188H88.4468L92.5093 22.625H92.6968L96.7593 12.7188H101.548V28.7188H97.7827V18.8906H97.6499L93.8062 28.6172H91.3999L87.5562 18.8359H87.4234V28.7188H83.6577V12.7188Z" fill="#18191A"/>
<path d="M104.95 28.7188V12.7188H111.56C112.758 12.7188 113.792 12.9531 114.661 13.4219C115.536 13.8854 116.211 14.5339 116.685 15.3672C117.159 16.1953 117.396 17.1589 117.396 18.2578C117.396 19.362 117.154 20.3281 116.669 21.1563C116.19 21.9792 115.505 22.6172 114.615 23.0703C113.724 23.5234 112.667 23.75 111.443 23.75H107.365V20.7031H110.724C111.307 20.7031 111.794 20.6016 112.185 20.3984C112.581 20.1953 112.88 19.9115 113.083 19.5469C113.286 19.1771 113.388 18.7474 113.388 18.2578C113.388 17.763 113.286 17.3359 113.083 16.9766C112.88 16.612 112.581 16.3307 112.185 16.1328C111.789 15.9349 111.302 15.8359 110.724 15.8359H108.818V28.7188H104.95Z" fill="#18191A"/>
<path d="M135.394 20.7188C135.394 22.4792 135.055 23.9714 134.378 25.1953C133.701 26.4193 132.784 27.349 131.628 27.9844C130.477 28.6198 129.185 28.9375 127.753 28.9375C126.315 28.9375 125.021 28.6172 123.87 27.9766C122.719 27.3359 121.805 26.4063 121.128 25.1875C120.456 23.9635 120.12 22.474 120.12 20.7188C120.12 18.9583 120.456 17.4661 121.128 16.2422C121.805 15.0182 122.719 14.0885 123.87 13.4531C125.021 12.8177 126.315 12.5 127.753 12.5C129.185 12.5 130.477 12.8177 131.628 13.4531C132.784 14.0885 133.701 15.0182 134.378 16.2422C135.055 17.4661 135.394 18.9583 135.394 20.7188ZM131.44 20.7188C131.44 19.6771 131.292 18.7969 130.995 18.0781C130.703 17.3594 130.282 16.8151 129.73 16.4453C129.183 16.0755 128.524 15.8906 127.753 15.8906C126.987 15.8906 126.328 16.0755 125.776 16.4453C125.224 16.8151 124.8 17.3594 124.503 18.0781C124.211 18.7969 124.065 19.6771 124.065 20.7188C124.065 21.7604 124.211 22.6406 124.503 23.3594C124.8 24.0781 125.224 24.6224 125.776 24.9922C126.328 25.362 126.987 25.5469 127.753 25.5469C128.524 25.5469 129.183 25.362 129.73 24.9922C130.282 24.6224 130.703 24.0781 130.995 23.3594C131.292 22.6406 131.44 21.7604 131.44 20.7188Z" fill="#18191A"/>
<path d="M138.641 28.7188V12.7188H145.251C146.449 12.7188 147.483 12.9349 148.352 13.3672C149.227 13.7943 149.902 14.4089 150.376 15.2109C150.85 16.0078 151.087 16.9531 151.087 18.0469C151.087 19.1563 150.845 20.099 150.36 20.875C149.876 21.6458 149.188 22.2344 148.298 22.6406C147.407 23.0417 146.352 23.2422 145.134 23.2422H140.954V20.1953H144.415C144.998 20.1953 145.485 20.1198 145.876 19.9688C146.272 19.8125 146.571 19.5781 146.774 19.2656C146.977 18.9479 147.079 18.5417 147.079 18.0469C147.079 17.5521 146.977 17.1432 146.774 16.8203C146.571 16.4922 146.272 16.2474 145.876 16.0859C145.48 15.9193 144.993 15.8359 144.415 15.8359H142.509V28.7188H138.641ZM147.649 21.4063L151.634 28.7188H147.415L143.509 21.4063H147.649Z" fill="#18191A"/>
<path d="M157.659 28.7188H153.503L158.901 12.7188H164.049L169.448 28.7188H165.292L161.534 16.75H161.409L157.659 28.7188ZM157.104 22.4219H165.792V25.3594H157.104V22.4219Z" fill="#18191A"/>
<path d="M172.16 28.7188V12.7188H178.77C179.968 12.7188 181.002 12.9349 181.871 13.3672C182.746 13.7943 183.421 14.4089 183.895 15.2109C184.369 16.0078 184.606 16.9531 184.606 18.0469C184.606 19.1563 184.364 20.099 183.879 20.875C183.395 21.6458 182.707 22.2344 181.817 22.6406C180.926 23.0417 179.871 23.2422 178.653 23.2422H174.473V20.1953H177.934C178.517 20.1953 179.004 20.1198 179.395 19.9688C179.791 19.8125 180.09 19.5781 180.293 19.2656C180.496 18.9479 180.598 18.5417 180.598 18.0469C180.598 17.5521 180.496 17.1432 180.293 16.8203C180.09 16.4922 179.791 16.2474 179.395 16.0859C178.999 15.9193 178.512 15.8359 177.934 15.8359H176.028V28.7188H172.16ZM181.168 21.4063L185.153 28.7188H180.934L177.028 21.4063H181.168Z" fill="#18191A"/>
<path d="M186.211 12.7188H190.531L193.914 19.4141H194.055L197.438 12.7188H201.758L195.906 23.375V28.7188H192.063V23.375L186.211 12.7188Z" fill="#18191A"/>
<path d="M211.705 19.25V22.1875H204.299V19.25H211.705Z" fill="#18191A"/>
<path d="M215.392 28.7188V12.7188H226.548V15.8594H219.259V19.1406H225.978V22.2891H219.259V25.5781H226.548V28.7188H215.392Z" fill="#18191A"/>
<path d="M229.96 12.7188H234.749L238.812 22.625H238.999L243.062 12.7188H247.851V28.7188H244.085V18.8906H243.952L240.109 28.6172H237.702L233.859 18.8359H233.726V28.7188H229.96V12.7188Z" fill="#18191A"/>
<path d="M254.714 28.7188H250.558L255.956 12.7188H261.105L266.503 28.7188H262.347L258.589 16.75H258.464L254.714 28.7188ZM254.159 22.4219H262.847V25.3594H254.159V22.4219Z" fill="#18191A"/>
<path d="M273.083 12.7188V28.7188H269.216V12.7188H273.083Z" fill="#18191A"/>
<path d="M276.501 28.7188V12.7188H280.368V25.5781H287.024V28.7188H276.501Z" fill="#18191A"/>
<defs>
<linearGradient id="paint0_linear_103_1332" x1="21.9479" y1="10.613" x2="21.9479" y2="38.2667" gradientUnits="userSpaceOnUse">
<stop stop-color="#323FD4"/>
<stop offset="1" stop-color="#F55B7A"/>
</linearGradient>
</defs>
</svg>
