<svg width="554" height="314" viewBox="0 0 554 314" fill="none" xmlns="http://www.w3.org/2000/svg">
<g clip-path="url(#clip0_159_1677)">
<path d="M501.285 113.223H255.666V279.438H501.285V113.223Z" fill="#6692FF"/>
<path d="M255.666 113.223L371.001 218.41C375.252 222.25 381.835 222.25 386.087 218.41L501.285 113.223H255.666Z" fill="white"/>
<path d="M501.284 279.3L378.406 151.073L501.284 268.466V279.3Z" fill="white"/>
<path d="M255.666 279.3L378.407 151.073L255.666 268.466V279.3Z" fill="white"/>
<path d="M255.666 113.223L369.218 209.084C374.567 213.61 382.384 213.61 387.869 209.084L501.285 113.223H255.666Z" fill="#323FD4"/>
<path d="M489.284 279.289C489.284 279.289 480.891 275.461 481.48 266.625C482.069 257.643 488.253 255.876 493.554 252.636C498.856 249.397 499.297 243.948 499.445 237.174C499.592 230.401 504.157 223.774 513.139 224.216C522.122 224.658 525.362 226.425 531.841 218.767C538.32 210.963 547.155 211.257 550.689 215.528C554.371 219.798 554.665 227.161 549.07 232.168C542.296 238.352 540.529 239.825 538.615 246.746C535.964 256.023 539.793 264.858 536.406 269.276C531.841 275.019 526.981 273.546 522.269 275.461C517.557 277.375 517.41 279.584 517.41 279.584H489.284V279.289Z" fill="#323FD4"/>
<path d="M542.59 221.271C528.896 229.223 505.04 253.52 501.064 279.289" stroke="#3B55CE" stroke-width="1.34972" stroke-miterlimit="10" stroke-linecap="round"/>
<path d="M337.539 33.816C337.539 31.7589 339.184 29.9761 341.378 29.9761C343.436 29.9761 345.218 31.6218 345.218 33.816C345.218 35.8731 343.573 37.656 341.378 37.656C339.184 37.5188 337.539 35.8731 337.539 33.816Z" fill="#3B55CE"/>
<path d="M299.962 157.931C299.413 158.479 299.413 159.988 301.745 161.771C304.213 163.553 309.15 164.239 311.207 164.376C313.264 164.513 314.499 164.239 317.241 165.473C319.984 166.708 324.784 167.668 326.43 166.708C327.116 166.296 326.978 165.062 326.978 165.062L299.962 157.931Z" fill="#AAEEED"/>
<path d="M327.664 155.735C327.527 157.792 328.075 162.867 327.115 164.924C324.647 166.158 320.396 165.198 317.378 163.689C314.361 162.044 311.619 163.141 307.504 162.455C303.527 161.769 300.373 159.849 299.962 157.93C299.55 155.872 306.819 156.147 311.893 155.872C317.653 155.461 320.944 153.541 320.944 153.541L327.664 155.735Z" fill="#1E4174"/>
<path d="M318.338 157.519C318.338 157.519 318.064 154.639 316.967 153.404" stroke="#AAEEED" stroke-width="0.708025" stroke-miterlimit="10" stroke-linecap="round"/>
<path d="M314.361 158.067C314.361 158.067 314.087 155.187 312.99 153.953" stroke="#AAEEED" stroke-width="0.708025" stroke-miterlimit="10" stroke-linecap="round"/>
<path d="M310.384 158.615C310.384 158.615 310.109 155.735 309.012 154.5" stroke="#AAEEED" stroke-width="0.708025" stroke-miterlimit="10" stroke-linecap="round"/>
<path d="M329.857 148.604L327.663 155.735C327.663 155.735 326.703 155.872 326.154 156.146C325.606 156.558 324.783 157.792 324.097 157.792C321.492 157.244 320.806 153.541 320.806 153.541L322.589 145.998L329.857 148.604Z" fill="#FF9A8D"/>
<path d="M366.749 84.9712L365.789 92.5139L339.321 91.9654C339.321 91.9654 333.15 91.8282 331.23 98.1367C329.447 104.445 322.453 146.959 322.453 146.959C322.453 146.959 326.156 149.702 329.996 149.153C329.996 149.153 342.475 123.371 344.258 116.239C346.041 109.108 345.081 103.211 345.081 103.211L376.898 100.468L366.749 84.9712Z" fill="#1E4174"/>
<path d="M328.349 175.072C328.349 175.895 329.309 176.855 332.326 176.444C335.343 176.032 339.32 173.015 340.829 171.644C342.337 170.272 343.023 169.175 345.903 168.215C348.783 167.255 352.76 164.512 353.446 162.73C353.583 161.907 352.623 161.084 352.623 161.084L328.349 175.072Z" fill="#AAEEED"/>
<path d="M346.589 154.09C347.96 155.598 351.8 158.89 352.623 161.084C351.8 163.69 347.96 166.021 344.669 166.981C341.378 167.941 340.281 170.684 336.852 173.015C333.424 175.347 329.995 176.032 328.349 175.072C326.566 173.975 332.052 169.038 335.481 165.198C339.321 160.947 340.281 157.244 340.281 157.244L346.589 154.09Z" fill="#1E4174"/>
<path d="M341.103 161.907C341.103 161.907 338.908 159.987 337.263 159.987" stroke="#AAEEED" stroke-width="0.708025" stroke-miterlimit="10" stroke-linecap="round"/>
<path d="M338.635 165.061C338.635 165.061 336.441 163.141 334.795 163.141" stroke="#AAEEED" stroke-width="0.708025" stroke-miterlimit="10" stroke-linecap="round"/>
<path d="M336.303 168.216C336.303 168.216 334.109 166.296 332.463 166.296" stroke="#AAEEED" stroke-width="0.708025" stroke-miterlimit="10" stroke-linecap="round"/>
<path d="M345.491 147.782L346.589 154.09C346.589 154.09 345.903 154.776 345.903 155.462C345.903 156.147 346.177 157.656 345.629 157.93C343.434 159.302 340.417 157.244 340.417 157.244L337.812 149.427L345.491 147.782Z" fill="#FF9A8D"/>
<path d="M386.635 81.8179C387.595 84.2864 389.789 87.3035 391.161 89.6349C392.532 91.9663 396.646 98.1376 394.315 104.583C391.709 111.577 385.949 113.223 379.915 113.223C373.881 113.223 370.041 113.223 366.064 113.223C361.95 113.223 336.853 107.052 336.853 107.052C336.853 107.052 339.733 108.697 341.105 113.223C342.476 117.749 345.356 147.92 345.356 147.92C343.573 149.84 340.967 150.525 337.676 150.251C337.676 150.251 330.133 126.937 326.979 118.297C323.688 109.246 320.122 100.469 320.808 96.6291C321.768 91.1434 331.23 91.0063 339.047 91.2806C346.864 91.5549 364.83 92.2406 368.533 91.692L366.613 85.1092L386.635 81.8179Z" fill="#0B325B"/>
<path d="M394.314 104.445C396.783 97.9989 392.531 91.8276 391.16 89.4962C389.789 87.1648 387.594 84.2849 386.634 81.6792L366.749 84.8334L367.983 89.0848C367.983 89.0848 378.954 90.5933 383.754 84.8334C383.754 84.8334 387.32 90.1819 388.28 93.3362C389.651 97.7247 389.24 104.993 380.6 106.639C371.96 108.422 340.007 103.622 335.755 103.21C331.504 102.799 332.875 105.13 335.344 110.204C337.675 115.142 338.635 124.056 340.829 134.753C342.201 141.61 343.709 149.015 343.709 149.015C344.395 148.604 344.944 148.192 345.355 147.781C345.355 147.781 342.475 117.61 341.104 113.084C339.732 108.559 336.852 106.913 336.852 106.913C336.852 106.913 361.949 113.084 366.063 113.084C370.177 113.084 374.017 113.084 379.914 113.084C385.812 113.084 391.709 111.439 394.314 104.445Z" fill="#4E7EAC"/>
<path d="M379.229 81.8179C380.189 87.7149 382.658 90.5949 382.383 96.0805C382.109 101.429 377.72 104.172 365.104 103.075C352.349 101.978 332.875 99.0976 331.093 99.509C329.447 99.9204 329.996 102.526 332.19 110.343C334.521 118.023 342.201 152.308 342.201 152.308" stroke="#274D79" stroke-width="0.708025" stroke-miterlimit="10"/>
<path d="M382.246 97.4505C382.246 97.4505 379.503 98.1362 377.172 96.0791C374.841 94.022 374.292 84.9707 374.292 84.9707" stroke="#274D79" stroke-width="0.708025" stroke-miterlimit="10"/>
<path d="M335.893 147.37C335.893 147.37 341.516 148.604 345.904 144.353" stroke="#274D79" stroke-width="0.708025" stroke-miterlimit="10"/>
<path d="M378.131 9.54276C378.131 9.54276 374.154 6.11425 366.749 6.93709C360.852 7.48565 356.463 10.9142 355.092 15.3027C353.72 19.6912 354.132 27.5082 361.263 32.0338C361.263 32.0338 359.069 33.2681 361.537 35.5995C361.537 35.5995 357.697 36.5595 356.463 38.6166C355.229 40.6737 356.463 42.7308 357.149 45.1993C357.835 47.6679 358.109 47.9422 354.955 51.2335C351.8 54.3878 348.92 60.1477 353.446 67.4161C357.972 74.6846 365.926 80.8559 376.897 80.3074C388.005 79.7588 400.485 76.056 403.64 58.9134C406.794 41.7708 395.96 37.9309 393.08 38.7537C393.08 38.7537 396.371 31.4853 395.411 22.0226C394.451 12.5599 389.788 8.44564 385.948 8.03422C380.326 7.48565 378.131 9.54276 378.131 9.54276Z" fill="#001C45"/>
<path d="M375.937 43.2804C374.429 43.6918 371.96 44.1033 370.726 45.0633C369.492 46.0232 356.601 66.0458 356.601 66.0458C356.601 66.0458 344.806 47.5318 343.024 45.3375C341.241 43.0061 332.19 40.1262 330.544 40.5376C328.487 40.949 329.584 43.4176 329.995 45.0633C330.27 46.0232 330.544 48.6289 332.327 49.726C333.972 50.8232 339.869 51.7831 339.869 51.7831C339.869 51.7831 350.566 74.1371 352.761 77.5656C354.132 79.7598 355.778 79.7598 358.383 76.8799C360.989 74.1371 371.137 60.6973 371.137 60.6973L375.937 43.2804Z" fill="#FF9A8D"/>
<path d="M375.938 43.2803C373.606 44.1031 371.412 44.1031 370.315 45.6117C369.081 47.1202 368.121 53.9772 368.121 53.9772C368.121 53.9772 374.018 52.743 375.526 49.7259C377.035 46.7088 377.172 43.8288 377.172 43.8288L375.938 43.2803Z" fill="#323FD4"/>
<path d="M384.03 39.4399C384.03 39.4399 384.99 40.1256 385.95 40.1256C387.321 40.2628 391.572 41.2228 392.395 42.8685C394.452 45.7484 392.395 55.074 391.161 61.6567C390.475 65.6338 383.344 74.6851 388.144 83.8735C388.144 83.8735 377.173 90.3191 366.064 84.8335C364.967 79.3479 366.201 75.5079 366.338 69.3366C364.83 67.6909 363.184 64.5367 363.047 62.4796C362.499 54.9368 370.041 52.6054 375.938 44.2399C377.584 41.9085 378.818 42.0456 381.012 40.2628C382.658 39.4399 384.03 39.4399 384.03 39.4399Z" fill="#6692FF"/>
<path d="M387.457 42.7316C390.749 40.6745 393.491 43.2802 395 46.983C396.509 50.6858 404.874 74.1368 405.56 77.0168C406.246 79.8968 403.091 108.696 402.268 110.342C401.446 111.988 400.486 113.222 397.194 113.222C393.903 113.222 381.972 113.222 381.972 113.222C381.972 113.222 382.657 111.713 385.4 111.028C388.006 110.342 395.411 110.205 396.92 107.873C398.429 105.542 397.743 78.7996 397.743 78.7996C397.743 78.7996 388.554 59.1885 386.497 54.2515C384.303 49.3144 385.126 44.2402 387.457 42.7316Z" fill="#FF9A8D"/>
<path d="M388.966 41.3605C387.046 41.3605 382.521 45.8861 386.361 54.1145C386.361 54.1145 391.298 47.1204 395.823 48.9032C395.823 48.9032 393.766 40.2633 388.966 41.3605Z" fill="#323FD4"/>
<path d="M380.054 31.8965L383.482 34.9136L384.991 40.1249C384.991 40.1249 382.796 41.6335 381.974 42.8677C381.014 44.3763 378.682 48.0791 375.939 48.3534C375.939 48.3534 376.214 45.062 375.802 43.2792C375.391 41.4963 374.156 37.9307 374.156 37.9307L380.054 31.8965Z" fill="#FF9A8D"/>
<path d="M380.053 31.8965C380.053 31.8965 380.739 34.7764 380.739 36.285C380.601 37.7935 379.367 40.8106 375.939 43.2792C375.527 41.4963 374.293 37.9307 374.293 37.9307L380.053 31.8965Z" fill="#BA5964"/>
<path d="M365.516 25.314C364.83 27.6454 362.224 30.9367 362.773 31.4853C363.321 32.0339 365.516 31.8967 365.516 31.8967C365.516 31.8967 367.161 30.251 366.613 28.0568C366.064 25.8625 365.516 25.314 365.516 25.314Z" fill="#BA5964"/>
<path d="M371.276 10.7776C368.121 11.0519 364.83 15.5775 364.83 19.5546C364.83 23.6688 365.79 25.863 365.516 28.743C365.242 31.623 365.242 34.3658 366.476 37.3829C367.299 39.44 369.356 39.8514 372.099 39.1657C374.704 38.6171 378.133 36.1486 378.956 35.3258C379.778 34.5029 379.916 31.8972 379.916 31.8972C379.916 31.8972 383.755 31.3487 385.401 27.9202C387.321 24.3545 387.047 9.40616 371.276 10.7776Z" fill="#FF9A8D"/>
<path d="M380.052 31.8956C380.052 31.8956 383.481 30.5242 383.207 26.6842C382.932 22.7072 377.584 22.57 377.721 26.1357C377.721 26.1357 374.018 25.45 371.687 22.7072C367.436 17.7701 366.887 13.6559 366.887 13.6559C367.847 7.48455 377.995 9.6788 377.995 9.6788C377.995 9.6788 383.207 7.48455 387.595 10.3645C390.749 12.4216 392.395 19.9644 389.789 26.2728C387.184 32.5813 383.344 35.0498 383.344 35.0498L380.052 31.8956Z" fill="#001C45"/>
<path d="M368.395 26.41C368.395 25.8614 368.807 25.45 369.355 25.5871C369.904 25.5871 370.315 25.9985 370.178 26.5471C370.178 27.0957 369.767 27.5071 369.218 27.37C368.67 27.37 368.258 26.9585 368.395 26.41Z" fill="#001C45"/>
<path d="M367.573 23.9419L371.824 25.3133C371.824 25.3133 371.687 23.8048 370.316 23.3933C368.533 22.8448 367.573 23.9419 367.573 23.9419Z" fill="#001C45"/>
<path d="M381.013 25.8624C380.464 25.5881 379.504 25.7253 379.093 26.1367C378.955 26.2738 379.23 26.5481 379.367 26.5481C380.327 26.1367 381.561 26.1367 381.973 27.2338C381.973 27.2338 382.11 27.2338 381.973 27.2338C381.973 26.5481 381.698 26.1367 381.013 25.8624Z" fill="#BA5964"/>
<path d="M380.602 25.9995C380.465 25.9995 380.191 26.2738 380.328 26.2738C380.465 26.4109 380.739 26.5481 380.877 26.6852C381.151 27.0966 381.151 27.3709 381.151 27.7823C381.014 28.7423 380.465 29.428 379.505 29.7023C380.328 29.9766 381.288 29.0166 381.425 28.3309C381.562 27.5081 381.562 26.4109 380.602 25.9995Z" fill="#BA5964"/>
<path d="M376.075 44.5144C376.075 45.6116 374.018 48.0801 374.566 49.7258C375.115 51.3715 378.543 51.6458 380.463 49.7258C382.383 47.8058 383.481 41.7716 386.086 40.1259C386.086 40.1259 385.263 40.1259 384.852 39.0288L376.075 44.5144Z" fill="#FF9A8D"/>
<path d="M338.224 38.6169C338.224 38.6169 337.127 47.8053 340.692 55.0738C341.104 55.7595 340.692 56.7195 340.007 56.9938L335.755 59.3252C334.795 59.8737 333.698 59.3252 333.424 58.228C332.738 54.6624 331.778 46.8454 334.247 38.0684L338.224 38.6169Z" fill="#1E4174"/>
<path d="M333.698 41.0859C334.795 41.3602 336.304 42.0459 336.441 43.143C336.578 44.2402 334.795 44.2402 334.795 44.2402C334.795 44.2402 336.029 44.7887 336.167 45.6116C336.304 46.4344 335.481 47.1201 334.384 47.1201C334.384 47.1201 335.481 47.5315 335.207 48.4915C334.795 49.5887 333.15 48.6287 332.738 49.4515C332.738 49.4515 331.778 48.4915 331.641 46.2973C331.504 43.9659 333.698 41.0859 333.698 41.0859Z" fill="#FF9A8D"/>
<path d="M343.024 45.3378C341.927 43.2807 340.967 41.9093 338.636 40.9493C336.579 40.1265 335.619 38.6179 335.207 39.4408C334.796 40.2636 336.167 42.7321 338.362 43.4178L343.024 45.3378Z" fill="#FF9A8D"/>
<path d="M331.504 38.3423L340.419 39.4394C342.75 39.7137 344.121 28.0568 341.79 27.7825L333.013 26.2739L331.504 38.3423Z" fill="#1E4174"/>
<path d="M333.15 26.2743C329.859 25.8629 318.75 20.6516 316.282 11.326C307.093 10.2289 302.842 43.9655 312.03 45.0626C314.499 39.1656 327.116 37.7941 331.504 38.3427C333.287 38.617 334.796 26.5486 333.15 26.2743Z" fill="#3B55CE"/>
<path d="M370.178 2C373.058 2.6857 377.172 5.97708 378.132 9.54274" stroke="#001C45" stroke-width="1.01229" stroke-miterlimit="10" stroke-linecap="round"/>
<path d="M75.2032 98.4588C83.0077 105.674 91.6957 110.534 101.562 108.619C115.551 105.969 126.448 91.6851 126.448 91.6851C126.448 91.6851 129.982 96.3972 129.982 96.839C129.982 97.2807 120.705 115.688 104.065 119.369C87.2781 123.198 72.2581 111.123 72.2581 111.123L75.2032 98.4588Z" fill="#DD7A79"/>
<path d="M218.629 197.267C225.255 206.544 237.625 209.783 247.932 204.629L266.634 195.5C270.168 193.733 274.438 194.911 276.647 198.298L310.368 251.162C312.725 254.843 311.547 259.85 307.718 262.059C296.821 268.244 274.291 278.699 249.552 276.637C214.8 273.839 192.123 241.443 153.836 181.216C115.55 120.989 95.8179 86.8255 108.04 54.1349C116.728 30.8686 135.724 14.8178 145.885 7.60227C149.419 5.09893 154.573 5.98246 156.929 9.8111L190.65 62.6756C192.712 66.0625 191.975 70.3329 189.03 72.8362L172.832 85.7947C163.85 93.0102 161.494 105.527 167.089 115.54L218.629 197.267Z" fill="url(#paint0_linear_159_1677)"/>
<path d="M174.895 84.0284L188.589 73.1315C191.682 70.6282 192.418 66.2105 190.209 62.9709L172.391 34.9925L156.341 9.81185C153.837 6.27773 149.125 5.3942 145.591 7.89753C142.204 10.4009 137.639 13.7877 132.927 18.2054L174.895 84.0284Z" fill="#323FD4"/>
<path d="M292.699 269.275C298.736 266.918 303.743 264.268 307.424 262.206C311.106 260.145 312.431 255.433 310.37 251.604L275.765 197.414C273.556 194.911 269.727 194.027 266.635 195.647L250.731 203.452L292.699 269.275Z" fill="#323FD4"/>
<path d="M75.6456 98.9004L81.9775 103.613C81.9775 103.613 84.9226 112.448 80.0632 117.013L71.6697 111.859L75.6456 98.9004Z" fill="#E09736"/>
<path d="M93.904 279.29C93.904 279.29 98.0272 273.842 95.5238 265.89C92.4315 255.729 82.8599 251.017 86.394 244.391C89.1919 238.795 97.7327 241.593 102.15 249.103C106.421 256.318 106.862 271.338 99.9415 279.29H93.904Z" fill="#6692FF"/>
<path d="M92.8735 247.335C92.8735 247.335 105.832 261.472 97.2912 279.29" stroke="#3B55CE" stroke-width="1.34972" stroke-miterlimit="10" stroke-linecap="round"/>
<path d="M103.476 279.29C103.476 279.29 113.342 273.253 118.643 260.884C124.092 248.514 124.239 233.936 118.643 228.782C113.342 223.923 107.157 226.868 105.537 235.261C103.918 243.655 107.599 265.007 96.7021 279.143H103.476V279.29Z" fill="#323FD4"/>
<path d="M113.784 231.285C113.784 231.285 115.403 243.949 111.722 257.497C108.041 271.044 100.972 279.29 100.972 279.29" stroke="#3B55CE" stroke-width="1.34972" stroke-miterlimit="10" stroke-linecap="round"/>
<path d="M241.748 279.29C241.748 279.29 241.896 261.914 228.201 245.863C214.506 229.665 198.75 223.922 185.203 228.782C175.042 232.463 177.693 244.096 185.939 249.103C195.658 254.993 232.324 257.349 233.649 279.29H241.748Z" fill="#6692FF"/>
<path d="M186.675 236.586C205.376 235.556 233.943 252.784 237.919 279.29" stroke="#3B55CE" stroke-width="1.34972" stroke-miterlimit="10" stroke-linecap="round"/>
<path d="M246.019 279.29C246.019 279.29 255.001 269.718 253.381 251.017C251.614 232.462 235.269 227.898 232.324 236.88C229.968 243.948 245.871 260.441 240.276 279.29H246.019Z" fill="#323FD4"/>
<path d="M240.276 238.205C243.81 242.77 250.583 261.324 243.662 279.289" stroke="#3B55CE" stroke-width="1.34972" stroke-miterlimit="10" stroke-linecap="round"/>
<path d="M529.319 282H7.36951C6.23043 282 5.34448 280.688 5.34448 279C5.34448 277.313 6.23043 276 7.36951 276H529.319C530.459 276 531.344 277.313 531.344 279C531.344 280.688 530.459 282 529.319 282Z" fill="#F06E88"/>
<path d="M107.046 273.215C107.487 273.952 107.193 275.277 104.248 276.455C101.45 277.633 96.296 277.191 94.2344 276.749C92.1729 276.308 90.9948 275.719 87.9025 276.455C84.9574 277.044 79.9507 276.749 78.4782 275.571C77.8891 274.982 78.3309 273.657 78.3309 273.657L107.046 273.215Z" fill="#8FC9C6"/>
<path d="M80.0977 264.378C79.656 266.44 78.0362 271.299 78.4779 273.655C80.5395 275.422 85.1044 275.57 88.4913 274.686C91.8781 273.803 94.2342 275.57 98.5046 275.864C102.628 276.159 106.162 274.981 107.045 273.214C107.929 271.299 100.713 269.827 95.7068 268.354C90.1111 266.587 87.3132 263.937 87.3132 263.937L80.0977 264.378Z" fill="#1E4174"/>
<path d="M88.9333 268.355C88.9333 268.355 89.9641 265.557 91.2894 264.674" stroke="#8FC9C6" stroke-width="0.67486" stroke-miterlimit="10" stroke-linecap="round"/>
<path d="M92.7622 269.827C92.7622 269.827 93.793 267.029 95.1183 266.146" stroke="#8FC9C6" stroke-width="0.67486" stroke-miterlimit="10" stroke-linecap="round"/>
<path d="M96.5908 271.301C96.5908 271.301 97.6216 268.503 98.9469 267.619" stroke="#8FC9C6" stroke-width="0.67486" stroke-miterlimit="10" stroke-linecap="round"/>
<path d="M80.0981 256.133V264.38C80.0981 264.38 80.9817 264.674 81.4234 265.116C81.8652 265.558 82.307 267.177 83.0432 267.177C85.6938 267.325 87.3136 263.791 87.3136 263.791L88.3444 256.281L80.0981 256.133Z" fill="#FF9A8D"/>
<path d="M13.5377 275.276C12.9487 275.865 11.4761 275.865 9.56182 273.509C7.6475 271.153 6.76397 265.999 6.61671 263.938C6.46946 261.876 6.76397 260.551 5.29142 257.753C3.81887 254.955 2.78808 250.243 3.67161 248.329C4.11338 247.74 5.43868 247.74 5.43868 247.74L13.5377 275.276Z" fill="#AAEEED"/>
<path d="M14.8636 246.856C12.802 247.004 7.64808 246.709 5.43925 247.74C4.26121 250.243 5.29199 254.661 7.05905 257.753C8.82611 260.846 7.79533 263.644 8.67886 267.767C9.56239 271.89 11.624 274.982 13.5383 275.277C15.5998 275.718 15.1581 268.208 15.3053 263.054C15.4526 257.164 17.3669 253.777 17.3669 253.777L14.8636 246.856Z" fill="#0B325B"/>
<path d="M13.3918 256.576C13.3918 256.576 16.3369 256.87 17.6622 257.901" stroke="#AAEEED" stroke-width="0.67486" stroke-miterlimit="10" stroke-linecap="round"/>
<path d="M12.9495 260.551C12.9495 260.551 15.8946 260.845 17.2199 261.876" stroke="#AAEEED" stroke-width="0.67486" stroke-miterlimit="10" stroke-linecap="round"/>
<path d="M12.5076 264.674C12.5076 264.674 15.4527 264.969 16.778 266" stroke="#AAEEED" stroke-width="0.67486" stroke-miterlimit="10" stroke-linecap="round"/>
<path d="M20.1648 243.028L14.8636 246.856C14.8636 246.856 14.8636 247.887 14.4219 248.329C14.1274 248.771 12.6548 249.802 12.8021 250.391C13.3911 253.041 17.2197 253.63 17.2197 253.63L24.5825 249.654L20.1648 243.028Z" fill="#FF9A8D"/>
<path d="M96.0008 138.476C86.7237 138.476 79.8028 139.212 79.8028 139.212C76.8577 140.538 71.7037 147.164 70.2312 151.435C68.7586 155.705 70.9675 161.595 71.7037 165.276C75.9741 185.745 80.539 199.881 82.1588 207.98C83.1896 212.987 79.5082 213.723 79.5082 221.528C79.5082 232.719 79.95 256.722 79.95 256.722C79.95 256.722 83.4841 258.783 88.049 257.311C88.049 257.311 94.97 217.847 95.7063 213.282C96.8843 205.919 97.3261 202.827 97.4734 190.163C97.7679 172.492 96.0008 138.476 96.0008 138.476Z" fill="#1E4174"/>
<path d="M95.8533 153.938C94.3808 161.154 83.9257 169.842 83.9257 169.842C82.7476 173.229 67.5804 225.21 65.077 227.271C62.5737 229.186 24.7292 249.654 24.7292 249.654C22.9621 248.623 21.7841 247.151 21.1951 245.826C20.7533 244.795 20.4588 243.911 20.3115 243.322C20.3115 243.175 20.3115 243.028 20.3115 243.028V242.88C20.3115 242.88 39.6019 222.412 44.1668 220.203C49.1735 217.847 51.9714 217.111 51.9714 217.111C57.1253 192.961 56.978 173.965 61.2484 160.712C61.9847 158.209 62.8682 156 63.7518 154.086C64.7825 151.73 65.6661 149.668 66.2551 148.048C66.5496 147.312 66.8441 146.723 66.9914 145.987C67.2859 145.398 67.4331 144.809 67.5804 144.22C67.7276 143.778 67.8749 143.483 67.8749 143.189C68.3167 141.716 68.7584 140.391 69.0529 139.36C69.2002 138.918 69.3474 138.329 69.642 137.888C69.7892 137.593 69.7892 137.446 69.9365 137.151C70.0837 136.857 70.0837 136.562 70.231 136.415L77.4465 141.863L80.9806 144.514L95.8533 153.938Z" fill="#0B325B"/>
<path d="M80.9806 144.514C79.9498 145.839 78.4773 147.606 76.5629 149.226C71.2618 153.938 68.0222 161.154 65.0771 176.174C61.8374 193.108 56.389 218.289 55.8 219.908C55.211 221.528 50.3515 220.939 41.6635 227.271C35.037 232.131 25.4654 242.144 21.1951 245.972C20.7533 244.942 20.4588 244.058 20.3115 243.469C20.3115 243.322 20.3115 243.175 20.3115 243.175V243.027C20.3115 243.027 39.6019 222.559 44.1668 220.35C49.1735 217.994 51.9714 217.258 51.9714 217.258C56.978 193.108 56.978 174.112 61.2484 160.859C61.9847 158.356 62.8682 156.147 63.7518 154.233C64.7825 151.877 65.6661 149.815 66.2551 148.195C66.5496 147.459 66.8441 146.723 66.9914 146.134C67.2859 145.545 67.4331 144.956 67.5804 144.367C67.7276 143.925 67.8749 143.63 67.8749 143.336C68.3167 141.863 68.7584 140.538 69.0529 139.507C69.2002 139.065 69.3474 138.476 69.642 138.035C69.7892 137.74 69.7892 137.593 69.9365 137.298C70.0837 137.004 70.231 136.857 70.231 136.562L77.4465 142.01L80.9806 144.514Z" fill="#4E7EAC"/>
<path d="M95.8534 153.938C95.8534 153.938 91.1412 160.123 78.1828 160.565C69.2002 160.859 63.4573 157.325 63.4573 157.325L66.9914 151.876L95.8534 153.938Z" fill="#4E7EAC"/>
<path d="M90.4053 139.801C84.9568 146.722 78.0358 150.993 75.0907 155.852C72.1456 160.711 70.5258 171.019 66.8445 189.868C63.1631 208.717 59.7762 221.528 58.7454 222.559C57.7147 223.737 51.3827 224.767 41.3694 231.541C31.356 238.168 19.8701 248.917 19.8701 248.917" stroke="#274D79" stroke-width="0.67486" stroke-miterlimit="10"/>
<path d="M84.3683 156.294C84.3683 156.294 82.1595 168.222 71.5571 166.161" stroke="#274D79" stroke-width="0.67486" stroke-miterlimit="10"/>
<path d="M22.2263 239.346C22.2263 242.585 24.5824 247.15 28.5583 249.654" stroke="#274D79" stroke-width="0.67486" stroke-miterlimit="10"/>
<path d="M82.748 85.3172L91.7306 92.9745L96.7373 80.8996L86.1349 74.7148L82.748 85.3172Z" fill="#FF9A8D"/>
<path d="M95.2643 84.4337C95.2643 84.4337 84.6619 81.4886 86.1345 74.7148L96.7368 80.8996L95.2643 84.4337Z" fill="#BA5964"/>
<path d="M91.4358 92.6794C93.4974 94.4465 94.8227 96.8026 95.1172 99.6004C95.559 103.871 96.0007 110.35 96.2952 119.774C96.5898 128.315 97.4733 153.054 97.4733 153.054C97.4733 153.054 90.9941 157.324 79.9499 156.441C69.4948 155.557 64.9299 150.403 64.9299 150.403C64.9299 150.403 65.9607 115.504 69.4948 101.809C74.6488 87.6728 82.6005 85.1694 82.6005 85.1694L91.4358 92.6794Z" fill="#FFC253"/>
<path d="M102.185 64.7012C102.774 65.5847 105.572 69.7078 106.603 70.8859C107.486 72.0639 103.805 72.3584 103.805 72.3584L102.185 64.7012Z" fill="#BA5964"/>
<path d="M86.1355 74.7154C86.1355 74.7154 86.7245 76.0407 87.3135 77.2187C87.9026 78.2495 96.7379 81.7836 99.0939 82.0781C101.45 82.3726 104.542 81.9309 103.806 74.1264C103.217 66.3218 101.156 59.6954 96.0016 56.1613C90.8477 52.6271 83.6322 56.4558 80.3926 61.4624C77.4475 66.3219 80.8343 76.0407 86.1355 74.7154Z" fill="#FF9A8D"/>
<path d="M86.1344 74.7152L84.9564 78.2493C84.9564 78.2493 84.0728 78.6911 81.864 75.8932C79.3607 72.8009 74.943 67.647 75.3848 64.4074C75.9738 60.137 80.9805 58.5172 80.9805 58.5172C80.9805 58.5172 83.4838 50.5654 93.3499 46.295C103.216 42.0246 107.634 49.2401 99.9764 54.5413C99.9764 54.5413 105.278 57.1919 101.891 59.2534C98.5038 61.315 88.9322 61.0205 88.9322 61.0205C88.9322 61.0205 93.6444 62.7876 92.1719 64.1128C90.8466 65.4381 84.6619 64.8491 84.6619 64.8491L85.3981 67.9415C85.3981 67.9415 82.8948 67.2052 81.5695 68.825C80.2442 70.4448 82.7475 75.746 86.1344 74.7152Z" fill="#001C45"/>
<path d="M79.9498 49.0923C79.9498 49.0923 77.0047 55.4242 82.6004 59.8419C82.6004 59.8419 77.0047 59.6946 75.8267 54.3935" stroke="#001C45" stroke-width="1.01229" stroke-miterlimit="10" stroke-linecap="round"/>
<path d="M98.2099 66.3207C98.0627 65.8789 97.4736 65.5844 97.0319 65.7317C96.5901 65.8789 96.2956 66.4679 96.4428 66.9097C96.5901 67.3515 97.1791 67.646 97.6209 67.4987C98.2099 67.3515 98.5044 66.7625 98.2099 66.3207Z" fill="#001C45"/>
<path d="M98.3563 63.6708L94.5276 66.1741C94.5276 66.1741 94.2331 64.7016 95.5584 63.818C97.1782 62.7873 98.3563 63.6708 98.3563 63.6708Z" fill="#001C45"/>
<path d="M83.0424 69.5605C83.4841 69.266 84.3677 68.9715 84.9567 69.266C85.1039 69.4133 84.9567 69.7078 84.8094 69.7078C83.7786 69.5605 82.6006 69.8551 82.4533 71.1803C82.3061 70.4441 82.6006 69.855 83.0424 69.5605Z" fill="#BA5964"/>
<path d="M83.6315 69.4133C83.7787 69.266 84.0732 69.5606 84.0732 69.5606C83.926 69.7078 83.7787 69.8551 83.6315 70.1496C83.4842 70.5913 83.4842 70.8859 83.7787 71.3276C84.0732 72.2111 84.8095 72.8002 85.8403 72.8002C85.104 73.2419 83.926 72.6529 83.4842 71.9166C83.0424 71.3276 82.7479 70.1496 83.6315 69.4133Z" fill="#BA5964"/>
<path d="M78.7724 93.1213C76.5635 94.2993 73.7657 100.484 75.8273 107.258C77.8888 114.032 80.5394 120.952 80.5394 120.952C80.5394 120.952 90.9945 118.449 93.7924 111.823C93.7924 111.823 90.111 102.84 88.3439 99.1587C86.5769 95.4774 84.3681 90.1762 78.7724 93.1213Z" fill="#E09736"/>
<path d="M89.816 132.291C92.1721 134.647 95.4117 137.151 97.1788 137.887C97.0315 133.911 96.8843 130.671 96.737 126.99L88.9325 116.682L83.7786 115.357L81.8643 120.658C81.8643 120.511 85.9874 128.61 89.816 132.291Z" fill="#E09736"/>
<path d="M81.2753 92.9741C76.2686 94.2994 74.6488 101.368 79.6555 112.265C84.3676 122.72 92.0249 132.438 96.7371 135.678C101.449 138.918 119.709 137.887 135.023 133.322C135.023 133.322 143.711 130.23 146.215 128.021C151.663 123.309 151.81 116.829 147.982 117.86C144.006 118.744 137.821 123.161 137.821 123.161C137.821 123.161 136.201 119.922 135.023 117.418C135.023 117.418 133.993 117.713 133.551 119.922C133.109 122.131 133.256 125.37 132.52 125.812C130.753 126.99 106.309 129.052 103.364 126.254C100.124 123.014 95.2645 114.326 91.8776 106.374C87.9018 97.539 86.282 91.6488 81.2753 92.9741Z" fill="#FF9A8D"/>
<path d="M79.6562 91.9443C77.4473 93.1224 74.6495 99.3071 76.7111 106.081C78.7726 112.855 81.4232 119.776 81.4232 119.776C81.4232 119.776 91.2893 118.303 95.4124 112.707C95.4124 112.707 90.9948 101.663 89.2277 97.9818C87.3134 94.4477 85.1046 88.9992 79.6562 91.9443Z" fill="#FFC253"/>
</g>
<defs>
<linearGradient id="paint0_linear_159_1677" x1="104.434" y1="147.992" x2="311.581" y2="147.992" gradientUnits="userSpaceOnUse">
<stop stop-color="#323FD4"/>
<stop offset="1" stop-color="#F55B7A"/>
</linearGradient>
<clipPath id="clip0_159_1677">
<rect width="553" height="313.007" fill="white" transform="translate(0.344727 0.119141)"/>
</clipPath>
</defs>
</svg>
