<svg width="22" height="16" viewBox="0 0 22 16" fill="none" xmlns="http://www.w3.org/2000/svg">
<path d="M11.05 16C8.81665 16 6.91665 15.225 5.34999 13.675C3.78332 12.125 2.99999 10.2333 2.99999 8V7.825L2.09999 8.725C1.91665 8.90833 1.68332 9 1.39999 9C1.11665 9 0.883321 8.90833 0.699988 8.725C0.516655 8.54167 0.424988 8.30833 0.424988 8.025C0.424988 7.74167 0.516655 7.50833 0.699988 7.325L3.29999 4.725C3.39999 4.625 3.50832 4.554 3.62499 4.512C3.74165 4.47067 3.86665 4.45 3.99999 4.45C4.13332 4.45 4.25832 4.47067 4.37499 4.512C4.49165 4.554 4.59999 4.625 4.69999 4.725L7.29999 7.325C7.48332 7.50833 7.57499 7.74167 7.57499 8.025C7.57499 8.30833 7.48332 8.54167 7.29999 8.725C7.11665 8.90833 6.88332 9 6.59999 9C6.31665 9 6.08332 8.90833 5.89999 8.725L4.99999 7.825V8C4.99999 9.66667 5.58765 11.0833 6.76299 12.25C7.93765 13.4167 9.36665 14 11.05 14C11.3833 14 11.7083 13.971 12.025 13.913C12.3417 13.8543 12.6583 13.7667 12.975 13.65C13.1417 13.5833 13.321 13.5667 13.513 13.6C13.7043 13.6333 13.8667 13.7167 14 13.85C14.3 14.15 14.421 14.4707 14.363 14.812C14.3043 15.154 14.0833 15.3917 13.7 15.525C13.2667 15.675 12.8293 15.7917 12.388 15.875C11.946 15.9583 11.5 16 11.05 16ZM18 11.55C17.8667 11.55 17.7417 11.529 17.625 11.487C17.5083 11.4457 17.4 11.375 17.3 11.275L14.7 8.675C14.5167 8.49167 14.425 8.25833 14.425 7.975C14.425 7.69167 14.5167 7.45833 14.7 7.275C14.8833 7.09167 15.1167 7 15.4 7C15.6833 7 15.9167 7.09167 16.1 7.275L17 8.175V8C17 6.33333 16.4127 4.91667 15.238 3.75C14.0627 2.58333 12.6333 2 10.95 2C10.6167 2 10.2917 2.02933 9.97499 2.088C9.65832 2.146 9.34165 2.23333 9.02499 2.35C8.85832 2.41667 8.67932 2.43333 8.48799 2.4C8.29599 2.36667 8.13332 2.28333 7.99999 2.15C7.69999 1.85 7.57899 1.529 7.63699 1.187C7.69565 0.845666 7.91665 0.608333 8.29999 0.475C8.73332 0.325 9.17099 0.208333 9.61299 0.125C10.0543 0.0416667 10.5 0 10.95 0C13.1833 0 15.0833 0.775 16.65 2.325C18.2167 3.875 19 5.76667 19 8V8.175L19.9 7.275C20.0833 7.09167 20.3167 7 20.6 7C20.8833 7 21.1167 7.09167 21.3 7.275C21.4833 7.45833 21.575 7.69167 21.575 7.975C21.575 8.25833 21.4833 8.49167 21.3 8.675L18.7 11.275C18.6 11.375 18.4917 11.4457 18.375 11.487C18.2583 11.529 18.1333 11.55 18 11.55Z" fill="#4E6AFF"/>
</svg>
