<svg width="189" height="57" viewBox="0 0 189 57" fill="none" xmlns="http://www.w3.org/2000/svg">
<g clip-path="url(#clip0_166_1591)">
<path d="M181.122 0.360352H6.96624C3.11889 0.360352 0 3.47924 0 7.32659V49.124C0 52.9714 3.11889 56.0903 6.96624 56.0903H181.122C184.97 56.0903 188.089 52.9714 188.089 49.124V7.32659C188.089 3.47924 184.97 0.360352 181.122 0.360352Z" fill="black"/>
<path d="M181.122 1.47495C182.674 1.47495 184.163 2.09146 185.26 3.18886C186.357 4.28625 186.974 5.77464 186.974 7.32659V49.124C186.974 50.676 186.357 52.1644 185.26 53.2618C184.163 54.3592 182.674 54.9757 181.122 54.9757H6.96624C5.41429 54.9757 3.9259 54.3592 2.82851 53.2618C1.73111 52.1644 1.1146 50.676 1.1146 49.124V7.32659C1.1146 5.77464 1.73111 4.28625 2.82851 3.18886C3.9259 2.09146 5.41429 1.47495 6.96624 1.47495H181.122ZM181.122 0.360352H6.96624C5.11868 0.360352 3.34679 1.09429 2.04037 2.40072C0.733941 3.70714 0 5.47903 0 7.32659V49.124C0 50.9716 0.733941 52.7435 2.04037 54.0499C3.34679 55.3563 5.11868 56.0903 6.96624 56.0903H181.122C182.97 56.0903 184.742 55.3563 186.048 54.0499C187.355 52.7435 188.089 50.9716 188.089 49.124V7.32659C188.089 5.47903 187.355 3.70714 186.048 2.40072C184.742 1.09429 182.97 0.360352 181.122 0.360352Z" fill="#A6A6A6"/>
<path d="M66.0679 14.6272C66.0907 15.1381 66.0099 15.6484 65.8304 16.1273C65.6508 16.6062 65.3761 17.0438 65.0229 17.4137C64.6271 17.8223 64.1495 18.1428 63.6213 18.3541C63.0931 18.5653 62.5262 18.6627 61.9578 18.6398C61.3861 18.6525 60.8178 18.5478 60.2882 18.3321C59.7586 18.1164 59.2788 17.7943 58.8787 17.3858C58.0669 16.5554 57.6123 15.4402 57.6123 14.2789C57.6123 13.1176 58.0669 12.0024 58.8787 11.1719C59.4994 10.5654 60.2855 10.1559 61.1382 9.99477C61.9909 9.83364 62.8723 9.92812 63.6715 10.2663C64.1739 10.4728 64.622 10.7923 64.9811 11.1998L64.2427 11.9382C63.966 11.6049 63.6154 11.3407 63.2188 11.1666C62.8222 10.9924 62.3904 10.9132 61.9578 10.9351C61.4117 10.9389 60.8748 11.0763 60.3941 11.3355C59.9133 11.5947 59.5034 11.9677 59.2001 12.4219C58.8968 12.876 58.7094 13.3976 58.6542 13.9409C58.599 14.4843 58.6778 15.0329 58.8836 15.5387C59.0893 16.0446 59.4159 16.4924 59.8347 16.8429C60.2535 17.1935 60.7518 17.4361 61.286 17.5496C61.8202 17.6631 62.3741 17.644 62.8992 17.494C63.4243 17.344 63.9047 17.0677 64.2984 16.6892C64.724 16.2226 64.9708 15.6205 64.9951 14.9894H61.9578V13.9863H66.0121C66.0439 14.1986 66.0625 14.4126 66.0679 14.6272Z" fill="white" stroke="white" stroke-width="0.263603" stroke-miterlimit="10"/>
<path d="M72.4489 11.1443H68.6871V13.7915H72.1145V14.7946H68.6871V17.4418H72.4489V18.4728H67.6004V10.1133H72.4489V11.1443Z" fill="white" stroke="white" stroke-width="0.263603" stroke-miterlimit="10"/>
<path d="M77.0188 18.4728H75.946V11.1443H73.6053V10.1133H79.4152V11.1443H77.0188V18.4728Z" fill="white" stroke="white" stroke-width="0.263603" stroke-miterlimit="10"/>
<path d="M83.5113 18.4728V10.1133H84.5841V18.4728H83.5113Z" fill="white" stroke="white" stroke-width="0.263603" stroke-miterlimit="10"/>
<path d="M89.349 18.4728H88.2762V11.1443H85.9355V10.1133H91.6757V11.1443H89.349V18.4728Z" fill="white" stroke="white" stroke-width="0.263603" stroke-miterlimit="10"/>
<path d="M102.557 17.3857C102.155 17.7884 101.677 18.1079 101.151 18.3259C100.625 18.5439 100.061 18.6561 99.4919 18.6561C98.9225 18.6561 98.3588 18.5439 97.8329 18.3259C97.3069 18.1079 96.8291 17.7884 96.4267 17.3857C95.6391 16.5484 95.2005 15.4422 95.2005 14.2927C95.2005 13.1432 95.6391 12.0369 96.4267 11.1997C96.8204 10.7856 97.2967 10.4588 97.8247 10.2404C98.3527 10.022 98.9207 9.91687 99.4919 9.93182C100.062 9.92279 100.628 10.0306 101.156 10.2487C101.683 10.4667 102.16 10.7904 102.557 11.1997C102.958 11.6072 103.273 12.0908 103.483 12.6221C103.694 13.1533 103.796 13.7214 103.783 14.2927C103.801 14.8647 103.702 15.4344 103.491 15.9664C103.28 16.4985 102.962 16.9815 102.557 17.3857ZM97.2209 16.6891C97.5177 16.9898 97.8712 17.2287 98.2611 17.3917C98.6509 17.5547 99.0693 17.6386 99.4919 17.6386C99.9144 17.6386 100.333 17.5547 100.723 17.3917C101.112 17.2287 101.466 16.9898 101.763 16.6891C102.364 16.0358 102.698 15.1805 102.698 14.2927C102.698 13.4049 102.364 12.5496 101.763 11.8963C101.466 11.5955 101.112 11.3567 100.723 11.1937C100.333 11.0307 99.9144 10.9468 99.4919 10.9468C99.0693 10.9468 98.6509 11.0307 98.2611 11.1937C97.8712 11.3567 97.5177 11.5955 97.2209 11.8963C96.6197 12.5496 96.286 13.4049 96.286 14.2927C96.286 15.1805 96.6197 16.0358 97.2209 16.6891Z" fill="white" stroke="white" stroke-width="0.263603" stroke-miterlimit="10"/>
<path d="M105.302 18.4728V10.1133H106.597L110.666 16.6198V15.0036V10.1133H111.738V18.4728H110.624L106.374 11.6598V13.262V18.4728H105.302Z" fill="white" stroke="white" stroke-width="0.263603" stroke-miterlimit="10"/>
<path d="M94.9359 30.6636C93.762 30.6664 92.6153 31.0172 91.6408 31.6716C90.6663 32.3261 89.9078 33.2548 89.4611 34.3404C89.0144 35.426 88.8997 36.6196 89.1314 37.7704C89.3631 38.9212 89.9309 39.9774 90.7629 40.8055C91.5949 41.6337 92.6538 42.1964 93.8056 42.4227C94.9575 42.6491 96.1506 42.5287 97.234 42.077C98.3175 41.6252 99.2427 40.8623 99.8926 39.8847C100.542 38.9071 100.888 37.7588 100.885 36.5849C100.896 35.8018 100.75 35.0245 100.455 34.2991C100.16 33.5737 99.7213 32.9152 99.1662 32.3627C98.6111 31.8102 97.9505 31.3751 97.2238 31.0832C96.497 30.7913 95.7189 30.6486 94.9359 30.6636ZM94.9359 40.1795C94.2164 40.2298 93.4984 40.0625 92.8753 39.6994C92.2521 39.3362 91.7526 38.794 91.4417 38.1432C91.1308 37.4924 91.0228 36.7631 91.1319 36.0501C91.241 35.3372 91.562 34.6735 92.0532 34.1454C92.5445 33.6173 93.1833 33.2492 93.8865 33.089C94.5897 32.9287 95.3249 32.9837 95.9964 33.2468C96.668 33.5099 97.2449 33.969 97.6521 34.5643C98.0593 35.1596 98.278 35.8637 98.2797 36.5849C98.3022 37.0419 98.2329 37.4988 98.0759 37.9286C97.919 38.3584 97.6776 38.7524 97.3659 39.0875C97.0543 39.4225 96.6787 39.6917 96.2614 39.8793C95.844 40.0668 95.3933 40.1689 94.9359 40.1795ZM81.9508 30.6636C80.777 30.6664 79.6303 31.0172 78.6558 31.6716C77.6812 32.3261 76.9227 33.2548 76.476 34.3404C76.0293 35.426 75.9146 36.6196 76.1463 37.7704C76.378 38.9212 76.9458 39.9774 77.7778 40.8055C78.6098 41.6337 79.6687 42.1964 80.8205 42.4227C81.9724 42.6491 83.1655 42.5287 84.249 42.077C85.3324 41.6252 86.2576 40.8623 86.9075 39.8847C87.5574 38.9071 87.9028 37.7588 87.9 36.5849C87.9114 35.8018 87.765 35.0245 87.4697 34.2991C87.1744 33.5737 86.7362 32.9152 86.1811 32.3627C85.626 31.8102 84.9654 31.3751 84.2387 31.0832C83.5119 30.7913 82.7339 30.6486 81.9508 30.6636ZM81.9508 40.1795C81.2313 40.2298 80.5133 40.0625 79.8902 39.6994C79.267 39.3362 78.7675 38.794 78.4566 38.1432C78.1457 37.4924 78.0378 36.7631 78.1468 36.0501C78.2559 35.3372 78.5769 34.6735 79.0682 34.1454C79.5594 33.6173 80.1982 33.2492 80.9014 33.089C81.6046 32.9287 82.3398 32.9837 83.0114 33.2468C83.6829 33.5099 84.2598 33.969 84.667 34.5643C85.0742 35.1596 85.2929 35.8637 85.2946 36.5849C85.3171 37.0419 85.2478 37.4988 85.0908 37.9286C84.9339 38.3584 84.6925 38.7524 84.3809 39.0875C84.0692 39.4225 83.6937 39.6917 83.2763 39.8793C82.859 40.0668 82.4083 40.1689 81.9508 40.1795ZM66.5136 32.4888V34.9966H72.5325C72.4381 36.1778 71.9471 37.2924 71.1392 38.1593C70.5355 38.7744 69.8093 39.256 69.0077 39.5728C68.2061 39.8896 67.3469 40.0346 66.4858 39.9984C64.7121 39.9984 63.0111 39.2938 61.7569 38.0396C60.5028 36.7855 59.7982 35.0845 59.7982 33.3108C59.7982 31.5371 60.5028 29.8361 61.7569 28.582C63.0111 27.3278 64.7121 26.6232 66.4858 26.6232C68.1862 26.5979 69.828 27.2437 71.0556 28.4205L72.8251 26.6511C71.9947 25.8298 71.0087 25.1824 69.925 24.747C68.8412 24.3116 67.6815 24.0969 66.5136 24.1154C65.275 24.0672 64.0395 24.2695 62.8809 24.7102C61.7224 25.151 60.6647 25.8211 59.7714 26.6804C58.878 27.5396 58.1673 28.5704 57.6818 29.7109C57.1964 30.8514 56.9461 32.0782 56.9461 33.3178C56.9461 34.5573 57.1964 35.7841 57.6818 36.9246C58.1673 38.0651 58.878 39.0959 59.7714 39.9552C60.6647 40.8145 61.7224 41.4846 62.8809 41.9253C64.0395 42.366 65.275 42.5684 66.5136 42.5202C67.7055 42.5678 68.8939 42.3627 70.0008 41.9185C71.1078 41.4743 72.1082 40.8009 72.9365 39.9427C74.3996 38.3354 75.1792 36.2216 75.11 34.0492C75.115 33.5264 75.073 33.0041 74.9846 32.4888H66.5136ZM129.642 34.4393C129.278 33.3703 128.599 32.4369 127.693 31.7627C126.788 31.0885 125.699 30.7052 124.57 30.6636C123.808 30.6621 123.054 30.817 122.354 31.1186C121.654 31.4202 121.023 31.8621 120.501 32.4171C119.979 32.9721 119.576 33.6283 119.317 34.3451C119.059 35.062 118.95 35.8243 118.997 36.5849C118.985 37.8568 119.385 39.0983 120.137 40.1242C120.889 41.15 121.953 41.9051 123.169 42.2766C124.385 42.6481 125.689 42.6161 126.886 42.1854C128.083 41.7547 129.108 40.9484 129.809 39.8869L127.789 38.4937C127.488 38.9956 127.06 39.4102 126.55 39.6961C126.039 39.982 125.462 40.1295 124.877 40.1238C124.273 40.1487 123.676 39.9904 123.163 39.6696C122.651 39.3489 122.248 38.8807 122.007 38.3265L129.934 35.0524L129.642 34.4393ZM121.561 36.4178C121.533 35.985 121.591 35.5509 121.733 35.141C121.874 34.7311 122.096 34.3535 122.386 34.0305C122.675 33.7074 123.026 33.4453 123.418 33.2595C123.81 33.0737 124.235 32.968 124.668 32.9486C125.117 32.9212 125.564 33.0268 125.953 33.2524C126.342 33.4779 126.656 33.8133 126.855 34.2164L121.561 36.4178ZM115.124 42.1579H117.729V24.7423H115.124V42.1579ZM110.861 31.9872H110.763C110.374 31.544 109.894 31.19 109.355 30.9495C108.816 30.7091 108.232 30.5878 107.642 30.594C106.12 30.6678 104.684 31.3246 103.633 32.4283C102.581 33.532 101.995 34.9979 101.995 36.5222C101.995 38.0466 102.581 39.5125 103.633 40.6162C104.684 41.7199 106.12 42.3767 107.642 42.4505C108.233 42.4624 108.819 42.3436 109.359 42.1028C109.898 41.8619 110.378 41.5049 110.763 41.0573H110.861V41.9071C110.861 44.1781 109.649 45.3903 107.698 45.3903C107.046 45.376 106.414 45.1683 105.881 44.7937C105.347 44.4192 104.937 43.8945 104.703 43.2865L102.446 44.2199C102.863 45.268 103.588 46.1648 104.526 46.7917C105.464 47.4186 106.57 47.7461 107.698 47.7309C110.749 47.7309 113.271 45.9336 113.271 41.5588V31.0119H110.861V31.9872ZM107.865 40.1795C106.952 40.1226 106.096 39.7199 105.469 39.0533C104.843 38.3868 104.494 37.5065 104.494 36.5919C104.494 35.6773 104.843 34.7971 105.469 34.1305C106.096 33.464 106.952 33.0612 107.865 33.0043C108.311 33.0235 108.749 33.1323 109.152 33.3242C109.556 33.5161 109.916 33.7872 110.213 34.1212C110.509 34.4553 110.735 34.8456 110.878 35.2688C111.02 35.6921 111.076 36.1397 111.042 36.5849C111.08 37.0317 111.027 37.4816 110.886 37.9073C110.745 38.3331 110.52 38.7258 110.223 39.0618C109.926 39.3978 109.564 39.6701 109.158 39.8623C108.753 40.0544 108.313 40.1623 107.865 40.1795ZM141.847 24.7423H135.605V42.1579H138.21V35.5539H141.847C142.589 35.6073 143.335 35.5071 144.037 35.2596C144.739 35.0121 145.382 34.6226 145.927 34.1154C146.472 33.6082 146.907 32.9942 147.204 32.3116C147.501 31.6291 147.655 30.8926 147.655 30.1481C147.655 29.4037 147.501 28.6672 147.204 27.9847C146.907 27.3021 146.472 26.6881 145.927 26.1809C145.382 25.6737 144.739 25.2842 144.037 25.0367C143.335 24.7892 142.589 24.689 141.847 24.7423ZM141.847 33.1018H138.21V27.1666H141.902C142.294 27.1666 142.682 27.2437 143.043 27.3935C143.405 27.5434 143.734 27.763 144.011 28.0399C144.287 28.3167 144.507 28.6454 144.657 29.0071C144.807 29.3689 144.884 29.7566 144.884 30.1481C144.884 30.5397 144.807 30.9274 144.657 31.2891C144.507 31.6509 144.287 31.9795 144.011 32.2564C143.734 32.5333 143.405 32.7529 143.043 32.9027C142.682 33.0526 142.294 33.1297 141.902 33.1297L141.847 33.1018ZM157.925 30.6079C156.976 30.5494 156.031 30.7703 155.206 31.2432C154.382 31.7162 153.714 32.4205 153.285 33.269L155.584 34.2304C155.816 33.8115 156.165 33.469 156.588 33.244C157.01 33.019 157.489 32.9212 157.966 32.9625C158.297 32.9239 158.632 32.9515 158.952 33.0438C159.272 33.136 159.571 33.2911 159.83 33.4999C160.089 33.7087 160.305 33.9671 160.463 34.2599C160.622 34.5528 160.72 34.8743 160.753 35.2056V35.3728C159.915 34.9324 158.983 34.7029 158.036 34.7041C155.556 34.7041 153.02 36.0973 153.02 38.633C153.045 39.172 153.178 39.7005 153.41 40.1873C153.643 40.674 153.971 41.1089 154.376 41.4663C154.78 41.8237 155.252 42.0963 155.763 42.2677C156.275 42.4392 156.816 42.5061 157.353 42.4644C158.007 42.5006 158.659 42.3623 159.242 42.0636C159.824 41.7649 160.317 41.3166 160.669 40.7647H160.753V42.1579H163.261V35.4564C163.261 32.4052 160.948 30.6358 157.98 30.6358L157.925 30.6079ZM157.604 40.1517C156.754 40.1517 155.57 39.7197 155.57 38.6748C155.57 37.2816 157.047 36.8079 158.357 36.8079C159.184 36.7874 160.002 36.9895 160.725 37.393C160.638 38.1497 160.279 38.8489 159.715 39.3613C159.152 39.8736 158.421 40.1643 157.66 40.1795L157.604 40.1517ZM172.401 31.0119L169.419 38.5633H169.335L166.242 31.0119H163.456L168.095 41.5728L165.448 47.4383H168.165L175.298 31.0119H172.401ZM148.994 42.1579H151.585V24.7423H148.994V42.1579Z" fill="white"/>
<path d="M14.5455 10.8656C14.0864 11.4084 13.8521 12.1062 13.8907 12.8161V43.6348C13.8433 44.3459 14.0786 45.0469 14.5455 45.5853L14.643 45.6968L31.9054 28.4345V28.0165L14.643 10.7681L14.5455 10.8656Z" fill="url(#paint0_linear_166_1591)"/>
<path d="M37.6176 34.1887L31.9053 28.4345V28.0166L37.6176 22.2625L37.743 22.346L44.5839 26.2193C46.5344 27.3199 46.5344 29.1312 44.5839 30.2458L37.7709 34.119L37.6176 34.1887Z" fill="url(#paint1_linear_166_1591)"/>
<path d="M37.7849 34.1049L31.9054 28.2253L14.5455 45.5852C14.9392 45.9357 15.4432 46.1373 15.9699 46.1551C16.4967 46.1729 17.0131 46.0058 17.4296 45.6827L37.7849 34.1049Z" fill="url(#paint2_linear_166_1591)"/>
<path d="M37.7849 22.3459L17.4296 10.782C17.0158 10.4544 16.4998 10.2833 15.9723 10.2985C15.4448 10.3138 14.9396 10.5146 14.5455 10.8656L31.9054 28.2254L37.7849 22.3459Z" fill="url(#paint3_linear_166_1591)"/>
<path opacity="0.2" d="M37.6177 33.9792L17.4296 45.4735C17.0282 45.7764 16.5391 45.9403 16.0363 45.9403C15.5335 45.9403 15.0444 45.7764 14.6431 45.4735L14.5455 45.5711L14.6431 45.6825C15.0444 45.9854 15.5335 46.1493 16.0363 46.1493C16.5391 46.1493 17.0282 45.9854 17.4296 45.6825L37.7849 34.1046L37.6177 33.9792Z" fill="black"/>
<path opacity="0.12" d="M14.5455 45.39C14.098 44.8374 13.8787 44.1346 13.9325 43.4255V43.6345C13.8851 44.3456 14.1204 45.0466 14.5873 45.5851L14.6848 45.4875L14.5455 45.39Z" fill="black"/>
<path opacity="0.12" d="M44.5839 30.0366L37.6177 33.9795L37.7431 34.1049L44.5839 30.2316C44.9877 30.0609 45.338 29.7844 45.5979 29.4313C45.8578 29.0783 46.0177 28.6616 46.0608 28.2253C45.9737 28.6218 45.7946 28.9923 45.5381 29.3069C45.2816 29.6215 44.9547 29.8714 44.5839 30.0366Z" fill="black"/>
<path opacity="0.25" d="M17.4296 10.9768L44.584 26.414C44.9548 26.5792 45.2816 26.8291 45.5382 27.1437C45.7947 27.4583 45.9737 27.8288 46.0608 28.2253C46.0178 27.7889 45.8579 27.3723 45.598 27.0193C45.3381 26.6662 44.9878 26.3897 44.584 26.219L17.4296 10.7818C15.4929 9.66718 13.8907 10.5867 13.8907 12.8159V13.0249C13.9325 10.7957 15.4929 9.87617 17.4296 10.9768Z" fill="white"/>
</g>
<defs>
<linearGradient id="paint0_linear_166_1591" x1="30.3728" y1="12.4957" x2="6.99409" y2="35.8744" gradientUnits="userSpaceOnUse">
<stop stop-color="#00A0FF"/>
<stop offset="0.01" stop-color="#00A1FF"/>
<stop offset="0.26" stop-color="#00BEFF"/>
<stop offset="0.51" stop-color="#00D2FF"/>
<stop offset="0.76" stop-color="#00DFFF"/>
<stop offset="1" stop-color="#00E3FF"/>
</linearGradient>
<linearGradient id="paint1_linear_166_1591" x1="47.1335" y1="28.2256" x2="13.4309" y2="28.2256" gradientUnits="userSpaceOnUse">
<stop stop-color="#FFE000"/>
<stop offset="0.41" stop-color="#FFBD00"/>
<stop offset="0.78" stop-color="#FFA500"/>
<stop offset="1" stop-color="#FF9C00"/>
</linearGradient>
<linearGradient id="paint2_linear_166_1591" x1="34.5944" y1="31.4298" x2="2.88404" y2="63.1262" gradientUnits="userSpaceOnUse">
<stop stop-color="#FF3A44"/>
<stop offset="1" stop-color="#C31162"/>
</linearGradient>
<linearGradient id="paint3_linear_166_1591" x1="10.1707" y1="0.611251" x2="24.3261" y2="14.7667" gradientUnits="userSpaceOnUse">
<stop stop-color="#32A071"/>
<stop offset="0.07" stop-color="#2DA771"/>
<stop offset="0.48" stop-color="#15CF74"/>
<stop offset="0.8" stop-color="#06E775"/>
<stop offset="1" stop-color="#00F076"/>
</linearGradient>
<clipPath id="clip0_166_1591">
<rect width="188.089" height="55.7299" fill="white" transform="translate(0 0.360352)"/>
</clipPath>
</defs>
</svg>
