<svg width="168" height="57" viewBox="0 0 168 57" fill="none" xmlns="http://www.w3.org/2000/svg">
<g clip-path="url(#clip0_166_1592)">
<path d="M154.6 0.360289H14.0458C13.5334 0.360289 13.0272 0.360289 12.5163 0.363075C12.0885 0.365862 11.6642 0.373956 11.2323 0.380769C10.2942 0.391778 9.3582 0.474084 8.43257 0.62697C7.50825 0.783185 6.61287 1.07769 5.77674 1.50054C4.94163 1.92696 4.17856 2.48105 3.51523 3.1427C2.84841 3.8025 2.29256 4.56514 1.86907 5.40128C1.4444 6.23577 1.14994 7.13 0.995842 8.05308C0.840284 8.975 0.756576 9.90755 0.745471 10.8424C0.732506 11.2695 0.731136 11.6981 0.724304 12.1254V44.3293C0.731136 44.7619 0.732506 45.181 0.745471 45.6137C0.75658 46.5485 0.840287 47.481 0.995842 48.4028C1.14951 49.3265 1.44399 50.2212 1.86907 51.056C2.29237 51.8894 2.8483 52.649 3.51523 53.3051C4.17605 53.9697 4.93961 54.5242 5.77674 54.9473C6.61287 55.3713 7.50814 55.6676 8.43257 55.8262C9.35836 55.9779 10.2942 56.0602 11.2323 56.0725C11.6642 56.082 12.0885 56.0874 12.5163 56.0874C13.0272 56.0902 13.5335 56.0902 14.0458 56.0902H154.6C155.102 56.0902 155.613 56.0902 156.115 56.0874C156.54 56.0874 156.977 56.082 157.403 56.0725C158.339 56.0609 159.273 55.9785 160.197 55.8262C161.124 55.6665 162.023 55.3703 162.863 54.9473C163.699 54.5239 164.462 53.9695 165.123 53.3051C165.788 52.6464 166.345 51.8874 166.773 51.056C167.195 50.2206 167.487 49.3259 167.638 48.4028C167.794 47.4808 167.881 46.5485 167.898 45.6137C167.903 45.181 167.903 44.7619 167.903 44.3293C167.914 43.8231 167.914 43.3197 167.914 42.8053V13.6465C167.914 13.1363 167.914 12.6301 167.903 12.1254C167.903 11.6981 167.903 11.2695 167.898 10.8423C167.881 9.90742 167.794 8.97507 167.638 8.05303C167.487 7.13048 167.195 6.23632 166.773 5.40123C165.911 3.72526 164.543 2.36103 162.863 1.50041C162.023 1.0786 161.124 0.784171 160.197 0.626845C159.273 0.473285 158.339 0.390951 157.403 0.380574C156.977 0.373775 156.54 0.365611 156.115 0.362894C155.613 0.360107 155.102 0.360107 154.6 0.360107V0.360289Z" fill="#A6A6A6"/>
<path d="M12.523 54.8711C12.0974 54.8711 11.682 54.8657 11.2596 54.8562C10.3847 54.8448 9.51179 54.7689 8.64812 54.629C7.84278 54.4906 7.06263 54.2334 6.33339 53.8656C5.61083 53.5009 4.95181 53.0226 4.38155 52.4492C3.80305 51.8825 3.32141 51.2253 2.95574 50.5035C2.58604 49.7771 2.33018 48.9984 2.19708 48.1947C2.05335 47.331 1.97558 46.4577 1.96445 45.5823C1.9556 45.2885 1.944 44.3101 1.944 44.3101V12.1253C1.944 12.1253 1.95635 11.162 1.96452 10.879C1.97518 10.005 2.05249 9.13306 2.1958 8.27074C2.32914 7.46478 2.58519 6.68386 2.9551 5.95502C3.31943 5.23376 3.79839 4.57603 4.37341 4.00733C4.94779 3.43323 5.60892 2.95254 6.3327 2.58278C7.06027 2.21619 7.83894 1.96072 8.64265 1.82493C9.50917 1.68361 10.3851 1.60721 11.263 1.59636L12.5237 1.57935H156.108L157.384 1.59704C158.253 1.60735 159.121 1.68307 159.98 1.82357C160.792 1.96106 161.579 2.21831 162.315 2.58686C163.765 3.33203 164.944 4.51097 165.689 5.95842C166.053 6.68223 166.305 7.45677 166.436 8.25578C166.581 9.12517 166.663 10.004 166.679 10.8851C166.683 11.2797 166.683 11.7035 166.683 12.1253C166.694 12.6478 166.694 13.1451 166.694 13.6465V42.8053C166.694 43.3115 166.694 43.8054 166.683 44.3033C166.683 44.7564 166.683 45.1714 166.678 45.5986C166.662 46.4641 166.582 47.3272 166.439 48.181C166.309 48.9906 166.054 49.7753 165.685 50.5077C165.316 51.2217 164.837 51.8732 164.266 52.4384C163.695 53.0149 163.035 53.4959 162.31 53.8629C161.577 54.2335 160.791 54.4918 159.98 54.629C159.116 54.7696 158.243 54.8456 157.368 54.8562C156.959 54.8657 156.531 54.8711 156.115 54.8711L154.6 54.8739L12.523 54.8711Z" fill="black"/>
<path d="M35.3304 28.6441C35.3454 27.4813 35.6552 26.3411 36.2308 25.3296C36.8065 24.3182 37.6294 23.4684 38.6229 22.8593C37.9917 21.9604 37.1591 21.2207 36.1911 20.6988C35.2231 20.177 34.1465 19.8874 33.0466 19.8531C30.7004 19.6075 28.4259 21.2531 27.2304 21.2531C26.0117 21.2531 24.1709 19.8775 22.1887 19.9182C20.9066 19.9595 19.657 20.3313 18.5618 20.9973C17.4666 21.6634 16.5631 22.601 15.9393 23.7188C13.2372 28.3839 15.2528 35.2402 17.8411 39.0112C19.1362 40.8577 20.6497 42.9203 22.6301 42.8472C24.568 42.767 25.2918 41.6149 27.6311 41.6149C29.9486 41.6149 30.6277 42.8472 32.6483 42.8007C34.7278 42.767 36.038 40.9459 37.2876 39.0819C38.218 37.7662 38.934 36.312 39.409 34.7733C38.2009 34.2637 37.1699 33.4108 36.4446 32.3209C35.7193 31.2309 35.3318 29.9522 35.3304 28.6441Z" fill="white"/>
<path d="M31.5139 17.3731C32.6477 16.0158 33.2063 14.2712 33.071 12.5098C31.3388 12.6912 29.7387 13.5168 28.5895 14.822C28.0277 15.4597 27.5973 16.2015 27.3232 17.0051C27.049 17.8086 26.9363 18.6582 26.9916 19.5053C27.858 19.5142 28.7152 19.3269 29.4985 18.9576C30.2818 18.5882 30.9709 18.0465 31.5139 17.3731Z" fill="white"/>
<path d="M59.8273 38.1726H53.214L51.6258 42.849H48.8247L55.0887 25.5476H57.999L64.263 42.849H61.4141L59.8273 38.1726ZM53.899 36.0147H59.1411L56.5569 28.4253H56.4846L53.899 36.0147Z" fill="white"/>
<path d="M77.7912 36.5426C77.7912 40.4625 75.6873 42.9809 72.5123 42.9809C71.708 43.0229 70.9082 42.8381 70.2043 42.4478C69.5004 42.0575 68.921 41.4775 68.5323 40.774H68.4722V47.0219H65.8758V30.2349H68.3891V32.3329H68.4368C68.8433 31.6329 69.4325 31.0558 70.1418 30.6631C70.851 30.2704 71.6538 30.0768 72.4646 30.1029C75.675 30.1029 77.7912 32.6336 77.7912 36.5426ZM75.1224 36.5426C75.1224 33.9888 73.7989 32.3098 71.7796 32.3098C69.7958 32.3098 68.4614 34.0242 68.4614 36.5426C68.4614 39.0842 69.7958 40.7863 71.7796 40.7863C73.799 40.7863 75.1224 39.1196 75.1224 36.5426Z" fill="white"/>
<path d="M91.7136 36.5426C91.7136 40.4625 89.6097 42.9809 86.4347 42.9809C85.6304 43.0229 84.8306 42.8381 84.1267 42.4478C83.4228 42.0575 82.8434 41.4775 82.4547 40.774H82.3946V47.0219H79.7982V30.2349H82.3114V32.3329H82.3592C82.7657 31.6329 83.3549 31.0558 84.0641 30.6631C84.7734 30.2704 85.5761 30.0768 86.3869 30.1029C89.5974 30.1029 91.7136 32.6336 91.7136 36.5426ZM89.0448 36.5426C89.0448 33.9888 87.7213 32.3098 85.702 32.3098C83.7182 32.3098 82.3838 34.0241 82.3838 36.5426C82.3838 39.0842 83.7182 40.7863 85.702 40.7863C87.7213 40.7863 89.0448 39.1196 89.0448 36.5426H89.0448Z" fill="white"/>
<path d="M100.915 38.0283C101.108 39.744 102.779 40.8705 105.063 40.8705C107.252 40.8705 108.826 39.7439 108.826 38.1969C108.826 36.854 107.877 36.0499 105.628 35.4989L103.379 34.9587C100.194 34.1913 98.7145 32.7056 98.7145 30.2946C98.7145 27.3094 101.323 25.259 105.028 25.259C108.694 25.259 111.207 27.3094 111.292 30.2946H108.671C108.514 28.568 107.082 27.5258 104.991 27.5258C102.899 27.5258 101.468 28.5803 101.468 30.115C101.468 31.3382 102.382 32.0579 104.618 32.6089L106.53 33.077C110.09 33.9165 111.569 35.3424 111.569 37.8731C111.569 41.1099 108.983 43.1372 104.871 43.1372C101.023 43.1372 98.4252 41.1575 98.2574 38.0282L100.915 38.0283Z" fill="white"/>
<path d="M117.172 27.2495V30.2347H119.578V32.2851H117.172V39.2391C117.172 40.3194 117.654 40.8228 118.711 40.8228C118.997 40.8178 119.282 40.7978 119.565 40.7629V42.8011C119.09 42.8896 118.607 42.9298 118.123 42.9208C115.562 42.9208 114.563 41.9616 114.563 39.5152V32.2851H112.724V30.2347H114.563V27.2495H117.172Z" fill="white"/>
<path d="M120.971 36.5424C120.971 32.5736 123.315 30.0796 126.97 30.0796C130.638 30.0796 132.971 32.5735 132.971 36.5424C132.971 40.5222 130.65 43.0052 126.97 43.0052C123.292 43.0052 120.971 40.5221 120.971 36.5424ZM130.325 36.5424C130.325 33.8199 129.074 32.213 126.97 32.213C124.866 32.213 123.616 33.8321 123.616 36.5424C123.616 39.2758 124.866 40.8705 126.97 40.8705C129.074 40.8705 130.325 39.2758 130.325 36.5424H130.325Z" fill="white"/>
<path d="M135.112 30.2348H137.588V32.3818H137.648C137.816 31.7112 138.209 31.1186 138.764 30.7036C139.318 30.2886 139.998 30.0764 140.691 30.1028C140.99 30.1017 141.288 30.1341 141.58 30.1994V32.6212C141.203 32.5061 140.808 32.4533 140.414 32.4648C140.036 32.4495 139.66 32.5158 139.311 32.6592C138.962 32.8025 138.648 33.0195 138.391 33.2952C138.134 33.5709 137.94 33.8988 137.822 34.2565C137.704 34.6141 137.665 34.9929 137.708 35.3669V42.8488H135.112L135.112 30.2348Z" fill="white"/>
<path d="M153.552 39.1439C153.202 41.4337 150.966 43.0052 148.105 43.0052C144.425 43.0052 142.141 40.5466 142.141 36.6023C142.141 32.6457 144.437 30.0796 147.996 30.0796C151.495 30.0796 153.696 32.477 153.696 36.3016V37.1887H144.762V37.3452C144.721 37.8094 144.779 38.2771 144.933 38.7171C145.087 39.1571 145.333 39.5595 145.655 39.8974C145.977 40.2354 146.367 40.5011 146.8 40.6771C147.232 40.8531 147.698 40.9352 148.165 40.9181C148.778 40.9754 149.394 40.8337 149.921 40.514C150.447 40.1944 150.856 39.7138 151.086 39.1439L153.552 39.1439ZM144.774 35.3791H151.098C151.122 34.9617 151.058 34.544 150.912 34.1522C150.766 33.7604 150.54 33.403 150.248 33.1024C149.957 32.8017 149.607 32.5644 149.219 32.4053C148.831 32.2462 148.415 32.1686 147.996 32.1776C147.573 32.1751 147.154 32.2561 146.762 32.416C146.371 32.5758 146.016 32.8114 145.716 33.109C145.417 33.4067 145.179 33.7605 145.018 34.1502C144.856 34.5398 144.773 34.9575 144.774 35.3791V35.3791Z" fill="white"/>
<path d="M53.5735 12.5248C54.1178 12.4859 54.664 12.5679 55.1728 12.7649C55.6815 12.962 56.14 13.2692 56.5153 13.6643C56.8905 14.0595 57.1732 14.5328 57.3428 15.05C57.5124 15.5673 57.5648 16.1157 57.4961 16.6556C57.4961 19.3115 56.0567 20.8381 53.5735 20.8381H50.5622V12.5248H53.5735ZM51.857 19.6624H53.4288C53.8178 19.6856 54.2071 19.622 54.5683 19.4763C54.9295 19.3305 55.2536 19.1063 55.5169 18.8199C55.7803 18.5335 55.9763 18.1921 56.0907 17.8206C56.205 17.4492 56.2349 17.0569 56.1781 16.6725C56.2308 16.2896 56.1979 15.8998 56.0818 15.5311C55.9656 15.1623 55.7691 14.8238 55.5064 14.5396C55.2436 14.2555 54.9211 14.0329 54.5619 13.8876C54.2027 13.7424 53.8158 13.6782 53.4288 13.6996H51.857V19.6624Z" fill="white"/>
<path d="M58.9588 17.6983C58.9192 17.286 58.9665 16.87 59.0976 16.477C59.2287 16.084 59.4408 15.7227 59.7201 15.4162C59.9995 15.1097 60.34 14.8648 60.7198 14.6973C61.0996 14.5297 61.5104 14.4431 61.9257 14.4431C62.341 14.4431 62.7518 14.5297 63.1316 14.6973C63.5114 14.8648 63.8519 15.1097 64.1313 15.4162C64.4106 15.7227 64.6227 16.084 64.7538 16.477C64.8849 16.87 64.9322 17.286 64.8926 17.6983C64.9329 18.111 64.8862 18.5275 64.7554 18.9212C64.6247 19.3148 64.4128 19.6768 64.1333 19.9839C63.8539 20.291 63.5131 20.5364 63.1329 20.7043C62.7527 20.8722 62.3415 20.959 61.9257 20.959C61.5099 20.959 61.0986 20.8722 60.7184 20.7043C60.3382 20.5364 59.9975 20.291 59.718 19.9839C59.4386 19.6768 59.2267 19.3148 59.096 18.9212C58.9652 18.5275 58.9185 18.111 58.9588 17.6983ZM63.6155 17.6983C63.6155 16.3384 63.0029 15.5431 61.9277 15.5431C60.8485 15.5431 60.2414 16.3384 60.2414 17.6983C60.2414 19.0691 60.8485 19.8582 61.9277 19.8582C63.0029 19.8582 63.6155 19.0636 63.6155 17.6983H63.6155Z" fill="white"/>
<path d="M72.7803 20.8377H71.4923L70.1921 16.2171H70.0938L68.799 20.8377H67.5233L65.7891 14.564H67.0485L68.1755 19.3512H68.2682L69.5617 14.564H70.7528L72.0463 19.3512H72.1445L73.2661 14.564H74.5077L72.7803 20.8377Z" fill="white"/>
<path d="M75.9662 14.5638H77.1614V15.5604H77.2542C77.4116 15.2025 77.6771 14.9024 78.0136 14.7021C78.3502 14.5017 78.741 14.411 79.1317 14.4427C79.4378 14.4197 79.7452 14.4658 80.031 14.5774C80.3169 14.689 80.5739 14.8633 80.783 15.0874C80.9921 15.3115 81.148 15.5796 81.2391 15.8719C81.3302 16.1643 81.3542 16.4733 81.3093 16.7761V20.8374H80.0677V17.087C80.0677 16.0788 79.6283 15.5774 78.7101 15.5774C78.5022 15.5678 78.2947 15.6031 78.1019 15.6809C77.909 15.7586 77.7352 15.8771 77.5925 16.0281C77.4499 16.1791 77.3416 16.3591 77.2752 16.5557C77.2088 16.7524 77.1858 16.961 77.2078 17.1673V20.8375H75.9662L75.9662 14.5638Z" fill="white"/>
<path d="M83.2877 12.115H84.5293V20.8378H83.2877V12.115Z" fill="white"/>
<path d="M86.2552 17.6984C86.2157 17.2861 86.263 16.8701 86.3942 16.4771C86.5253 16.0841 86.7374 15.7227 87.0167 15.4162C87.2961 15.1097 87.6367 14.8648 88.0165 14.6973C88.3963 14.5297 88.8071 14.4431 89.2225 14.4431C89.6378 14.4431 90.0486 14.5297 90.4284 14.6973C90.8083 14.8648 91.1488 15.1097 91.4282 15.4162C91.7076 15.7227 91.9196 16.0841 92.0508 16.4771C92.1819 16.8701 92.2292 17.2861 92.1897 17.6984C92.23 18.1111 92.1832 18.5277 92.0524 18.9213C91.9216 19.3149 91.7097 19.6769 91.4302 19.984C91.1508 20.2911 90.81 20.5365 90.4298 20.7044C90.0495 20.8723 89.6383 20.9591 89.2225 20.9591C88.8066 20.9591 88.3954 20.8723 88.0152 20.7044C87.635 20.5365 87.2942 20.2911 87.0147 19.984C86.7353 19.6769 86.5233 19.3149 86.3925 18.9213C86.2617 18.5277 86.215 18.1111 86.2552 17.6984ZM90.9119 17.6984C90.9119 16.3385 90.2993 15.5432 89.2242 15.5432C88.1449 15.5432 87.5378 16.3385 87.5378 17.6984C87.5378 19.0692 88.145 19.8583 89.2242 19.8583C90.2993 19.8583 90.912 19.0637 90.912 17.6984H90.9119Z" fill="white"/>
<path d="M93.4969 19.0637C93.4969 17.9344 94.3401 17.2833 95.8368 17.1908L97.541 17.0929V16.5514C97.541 15.8887 97.1017 15.5146 96.253 15.5146C95.5599 15.5146 95.0796 15.7683 94.9418 16.2119H93.7398C93.8666 15.1343 94.8831 14.4431 96.3103 14.4431C97.8876 14.4431 98.7772 15.2261 98.7772 16.5514V20.8379H97.5819V19.9562H97.4837C97.2843 20.2725 97.0043 20.5303 96.6723 20.7034C96.3403 20.8764 95.9682 20.9585 95.594 20.9413C95.3299 20.9687 95.0629 20.9406 94.8104 20.8588C94.5578 20.777 94.3253 20.6434 94.1277 20.4665C93.9301 20.2896 93.7719 20.0733 93.6632 19.8317C93.5546 19.5901 93.4979 19.3285 93.4969 19.0637ZM97.541 18.5276V18.0031L96.0047 18.1011C95.1383 18.1589 94.7453 18.4528 94.7453 19.0058C94.7453 19.5705 95.2365 19.8991 95.9119 19.8991C96.1098 19.9191 96.3098 19.8991 96.4998 19.8405C96.6898 19.7818 96.866 19.6857 97.018 19.5577C97.17 19.4298 97.2947 19.2726 97.3845 19.0957C97.4743 18.9187 97.5276 18.7255 97.541 18.5276Z" fill="white"/>
<path d="M100.409 17.6982C100.409 15.7158 101.431 14.46 103.021 14.46C103.414 14.4419 103.804 14.5358 104.146 14.7307C104.487 14.9257 104.766 15.2135 104.95 15.5607H105.043V12.115H106.284V20.8378H105.094V19.8466H104.996C104.798 20.1914 104.51 20.4756 104.161 20.6686C103.813 20.8615 103.419 20.9558 103.021 20.9411C101.42 20.9412 100.409 19.6854 100.409 17.6982ZM101.692 17.6982C101.692 19.0289 102.321 19.8296 103.373 19.8296C104.419 19.8296 105.066 19.0173 105.066 17.7037C105.066 16.3961 104.412 15.5723 103.373 15.5723C102.327 15.5723 101.692 16.3784 101.692 17.6982H101.692Z" fill="white"/>
<path d="M111.421 17.6983C111.382 17.286 111.429 16.87 111.56 16.477C111.691 16.084 111.903 15.7227 112.183 15.4162C112.462 15.1097 112.802 14.8648 113.182 14.6973C113.562 14.5297 113.973 14.4431 114.388 14.4431C114.804 14.4431 115.214 14.5297 115.594 14.6973C115.974 14.8648 116.314 15.1097 116.594 15.4162C116.873 15.7227 117.085 16.084 117.216 16.477C117.347 16.87 117.395 17.286 117.355 17.6983C117.395 18.111 117.349 18.5275 117.218 18.9212C117.087 19.3148 116.875 19.6768 116.596 19.9839C116.316 20.291 115.976 20.5364 115.595 20.7043C115.215 20.8722 114.804 20.959 114.388 20.959C113.972 20.959 113.561 20.8722 113.181 20.7043C112.801 20.5364 112.46 20.291 112.181 19.9839C111.901 19.6768 111.689 19.3148 111.558 18.9212C111.428 18.5275 111.381 18.111 111.421 17.6983ZM116.078 17.6983C116.078 16.3384 115.465 15.5431 114.39 15.5431C113.311 15.5431 112.704 16.3384 112.704 17.6983C112.704 19.0691 113.311 19.8582 114.39 19.8582C115.465 19.8582 116.078 19.0636 116.078 17.6983Z" fill="white"/>
<path d="M119.021 14.5638H120.216V15.5604H120.309C120.466 15.2025 120.732 14.9024 121.068 14.7021C121.405 14.5017 121.796 14.411 122.186 14.4427C122.493 14.4197 122.8 14.4658 123.086 14.5774C123.372 14.689 123.629 14.8633 123.838 15.0874C124.047 15.3115 124.203 15.5796 124.294 15.8719C124.385 16.1643 124.409 16.4733 124.364 16.7761V20.8374H123.122V17.087C123.122 16.0788 122.683 15.5774 121.765 15.5774C121.557 15.5678 121.35 15.6031 121.157 15.6809C120.964 15.7586 120.79 15.8771 120.647 16.0281C120.505 16.1791 120.396 16.3591 120.33 16.5557C120.264 16.7524 120.241 16.961 120.263 17.1673V20.8375H119.021V14.5638Z" fill="white"/>
<path d="M131.38 13.0022V14.5927H132.743V15.6356H131.38V18.8616C131.38 19.5188 131.651 19.8065 132.269 19.8065C132.428 19.806 132.586 19.7965 132.743 19.778V20.8093C132.52 20.8491 132.294 20.8702 132.068 20.8725C130.687 20.8725 130.137 20.3882 130.137 19.1786V15.6356H129.138V14.5927H130.137V13.0022H131.38Z" fill="white"/>
<path d="M134.439 12.115H135.669V15.5723H135.768C135.933 15.211 136.206 14.9092 136.549 14.7081C136.892 14.507 137.289 14.4163 137.686 14.4484C137.991 14.4319 138.295 14.4826 138.578 14.5969C138.86 14.7112 139.114 14.8863 139.321 15.1097C139.528 15.3331 139.683 15.5993 139.775 15.8892C139.867 16.1792 139.893 16.4859 139.853 16.7873V20.8378H138.61V17.0927C138.61 16.0906 138.142 15.5831 137.265 15.5831C137.051 15.5657 136.836 15.5949 136.636 15.6689C136.435 15.7428 136.252 15.8596 136.102 16.0111C135.951 16.1626 135.835 16.3451 135.762 16.5459C135.689 16.7467 135.661 16.961 135.68 17.1737V20.8377H134.439L134.439 12.115Z" fill="white"/>
<path d="M147.092 19.1438C146.924 19.7172 146.558 20.2132 146.06 20.545C145.562 20.8768 144.962 21.0233 144.366 20.9588C143.952 20.9698 143.54 20.8906 143.159 20.7268C142.779 20.5631 142.438 20.3187 142.162 20.0106C141.885 19.7025 141.679 19.3381 141.558 18.9427C141.437 18.5472 141.403 18.1302 141.46 17.7206C141.405 17.3098 141.439 16.8919 141.56 16.4953C141.681 16.0987 141.886 15.7326 142.161 15.4218C142.436 15.111 142.774 14.8628 143.154 14.6939C143.534 14.525 143.945 14.4394 144.361 14.443C146.111 14.443 147.168 15.6356 147.168 17.6056V18.0377H142.725V18.1071C142.706 18.3373 142.735 18.569 142.81 18.7874C142.886 19.0058 143.006 19.206 143.164 19.3753C143.322 19.5445 143.513 19.679 143.726 19.7701C143.939 19.8612 144.169 19.9069 144.4 19.9044C144.697 19.9399 144.998 19.8866 145.265 19.7511C145.531 19.6157 145.752 19.4043 145.897 19.1438L147.092 19.1438ZM142.725 17.122H145.903C145.918 16.9114 145.89 16.6999 145.818 16.5011C145.747 16.3022 145.635 16.1205 145.489 15.9674C145.343 15.8143 145.167 15.6934 144.972 15.6123C144.776 15.5313 144.566 15.4919 144.354 15.4968C144.139 15.4941 143.926 15.5343 143.727 15.615C143.528 15.6957 143.348 15.8154 143.196 15.9668C143.044 16.1183 142.924 16.2985 142.843 16.4969C142.762 16.6953 142.722 16.9078 142.725 17.122H142.725Z" fill="white"/>
</g>
<defs>
<clipPath id="clip0_166_1592">
<rect width="167.19" height="55.7299" fill="white" transform="translate(0.724304 0.360352)"/>
</clipPath>
</defs>
</svg>
